<?xml version="1.0" encoding="utf-8"?>
<!-- Generator: Adobe Illustrator 23.0.3, SVG Export Plug-In . SVG Version: 6.00 Build 0)  -->
<svg version="1.1" id="Layer_1" xmlns="http://www.w3.org/2000/svg" xmlns:xlink="http://www.w3.org/1999/xlink" x="0px" y="0px"
	 viewBox="0 0 100 100" style="enable-background:new 0 0 100 100;" xml:space="preserve">
<style type="text/css">
	.st0{fill:#1C4484;}
	.st1{display:none;fill:#03539C;}
	.st2{display:none;fill:#2999C6;}
	.st3{display:none;fill:#FFFFFF;}
	.st4{fill:#CEAE29;}
	.st5{fill:#FFFFFF;}
	.st6{fill:#EF3030;}
	.st7{display:none;}
	.st8{display:inline;fill:#FFFFFF;}
	.st9{display:inline;fill:#EF3030;}
</style>
<g id="XMLID_1_">
	<g>
		<circle class="st0" cx="50" cy="50" r="40"/>
	</g>
	<g>
	</g>
</g>
<path class="st1" d="M90,50H56.2V21.8H43.5V50H10c0-22.1,17.9-40,40-40S90,27.9,90,50z"/>
<path class="st2" d="M56.2,50H90c0,22.1-17.9,40-40,40S10,72.1,10,50h33.5v27.9h12.6V50H56.2z"/>
<rect x="43.5" y="50" class="st3" width="12.6" height="27.9"/>
<rect x="43.5" y="21.8" class="st3" width="12.6" height="28.2"/>
<circle class="st4" cx="50" cy="50" r="40"/>
<circle class="st0" cx="50" cy="50" r="36.7"/>
<g>
	<path class="st4" d="M29.2,67.1c0.2-0.7,0.5-1.2,1-1.5c0.9-0.6,1.5-1.4,2.1-2.2c0.4-0.5,0.9-1,1.5-1.4c1-0.8,1.9-1.6,2.6-2.7
		c0.1-0.2,0.3-0.4,0.5-0.6c1-1,1.3-2.3,1.2-3.7c-0.1-1.1-0.2-2.3-0.2-3.4c0-0.5,0.2-0.9,0.3-1.3c0.8-1.5,1.3-3.2,1.7-4.9
		c0.2-0.9,0.5-1.8,1.2-2.5c1-1.2,1.5-2.5,2-3.8c0.1-0.3,0-0.7-0.1-1c-0.6-1.2-1.3-2.4-2.4-3.2c-0.5-0.3-0.8-0.8-1.3-1.3
		c-0.1-0.1-0.1-0.3-0.2-0.4c1-0.4,1.7-1.1,2.3-1.9c0.5-0.7,1.1-1.4,1.6-2.1c0.5-0.7,1-1,2-0.6c0.6,0.2,1.2,0.3,1.9,0.5
		c0.4,0.1,0.8,0.4,1,0.7c0.3,0.3,0.4,0.7,0.7,1.2c-0.3-0.1-0.4-0.2-0.5-0.2c-0.5-0.2-0.8,0.1-0.7,0.6c0,0.1,0,0.1,0,0.2
		c0,0.7,0.2,1.1,0.9,1.4c0.6,0.3,0.7,0.7,0.3,1.3c-0.6,0.9-0.6,1.8-0.5,2.8c0.2,1.3,0.3,2.5,0.5,3.8c0.1,1,0.7,1.8,1.3,2.4
		c0.6,0.5,1.1,0.5,1.4-0.3c0.5-0.9,0.9-1.8,1.4-2.7c0.9-1.9,1.7-4,2.5-5.9c0.4-1,0.9-1.9,1.3-3c0.2-0.6,0.3-1.2,0.1-1.8
		c-0.2-0.8-1.1-0.8-1.5-0.4c-0.3,0.2-0.5,0.6-0.7,0.9c-0.7,0.8-1.2,0.8-1.8,0c-0.7-0.9-0.8-2-0.8-3.1c0-0.1,0-0.2,0.1-0.3
		c0.8-0.9,1.5-1.9,2.4-2.7c1-1,2.3-1.2,3.7-0.8c0.8,0.3,1.7,0.5,2.3,0.9c1.8,1,2.1,2.3,1.6,4.2c-0.4,1.5-1.3,2.6-2.5,3.4
		c-3.9,2.7-5.9,6.6-6.9,11.1c0,0.1,0,0.1,0,0.2c0.5,0,0.9-0.3,1.2-0.6c0.5-0.6,1-0.9,1.6-1.1c0.8-0.4,1.6-1.1,2.4-1.7
		c0.7-0.5,1-0.6,1.5-0.4s0.8,1,0.7,1.7c-0.1,0.8-0.5,1.3-1.2,1.7c-1.1,0.5-2.2,1-3.1,1.7c-2.4,1.6-4,3.9-4.8,6.7
		c-0.2,0.6-0.3,1.3-0.4,1.9c-0.2,0.4-0.4,0.9-0.7,1.3c-0.4,0.6-1,1-1.8,1.2c-1.3,0.2-1.5,0.6-1,1.8c0.5,1-0.1,1.8-0.9,2.2
		c0,0,0,0-0.1,0c-1,0.5-1.2,0.4-0.9,1.8c0.1,0.4,0.2,0.9,0.4,1.3c0.4,1,0.1,1.9-0.4,2.8c-0.1,0.2-0.2,0.4-0.3,0.5
		c-0.7,0.9-1.5,1.1-2.6,0.8c-1.6-0.6-3.4-1.1-5.1-1c-1.5,0-2.9,0.3-4.4,0.5c-0.7-0.2-1.3,0.2-1.8,0.6S29.8,67.1,29.2,67.1z
		 M45.7,47.7c-0.1-0.3-0.1-0.7-0.3-1c-0.3-1.2-1.2-1.6-2.4-1c-0.8,0.4-1.4,1.2-2,2c-0.4,0.6-0.2,1.1-0.1,1.7c0,0.2,0.1,0.4,0.1,0.6
		c0.1,0.5-0.1,0.9-0.3,1.3c-0.5,0.6-0.7,1.2-0.6,1.9c0,0.4,0,1,0.1,1c0.4,0.1,0.8-0.1,1.3-0.2c0.2-0.1,0.4-0.3,0.6-0.5
		c0.2-0.3,0.5-0.6,0.6-0.9c0.6-0.9,1.2-1.7,1.9-2.6c0.3-0.3,0.5-0.7,0.7-1C45.7,48.6,45.9,48.1,45.7,47.7z M44.8,30.5
		c0-0.2,0-0.3-0.1-0.4c-0.2-0.6-0.2-0.7-0.9-0.6c-0.3,0.1-0.7,0.3-0.9,0.6c-0.5,0.7-1,1.4-1.5,2.1c-0.5,0.8-0.4,1.7,0.2,2.2
		c0.7,0.5,1.5,0.4,2.2-0.3C44.6,33.1,44.7,31.8,44.8,30.5z"/>
	<path class="st4" d="M58.3,70.3c0-0.9,0-1.7,0-2.5c-0.1-0.6-0.3-1.3-0.5-1.8c-0.2-0.4-0.2-0.7,0.1-1c1-1.2,1.2-2.6,1-4
		c-0.1-0.3-0.3-0.7-0.5-1c-0.4-0.5-0.6-0.9-0.3-1.4c0.2-0.5,0.4-1,0.6-1.5c0.5-1,0.5-1.9,0-3c-0.4-0.8-0.9-1.7-1.4-2.6
		c1.6-0.5,2.3-0.2,2.5,1.2c0.2,0.9,0,1.7,0,2.6c0,0.3,0,0.6,0.3,0.8c1.3,1.4,1.8,3,1.6,5c0,0.3-0.2,0.8-0.3,1.1
		c-0.5,1.4-0.2,2.5,0.7,3.6c0.7,0.8,0.8,1.4,0.1,2.3C61.1,69.1,59.8,69.7,58.3,70.3z"/>
	<path class="st4" d="M51.7,67.6c-0.4-1.5,0-2.8,0.9-4c0.2-0.3,0.4-0.6,0.6-0.9c0.6-0.8,0.7-1.7,0.6-2.7c-0.1-0.7,0-1.3,0.3-1.9
		c0.7-1.4,0.9-2.9,0.7-4.5c0-0.2-0.2-0.5,0.2-0.6c0.4-0.1,0.6-0.1,0.8,0.3c0.7,1.3,0.6,2.7,0.1,4c-0.1,0.5-0.3,0.9-0.5,1.3
		c-0.2,0.3-0.1,0.5,0.1,0.7c0.3,0.3,0.7,0.5,0.9,0.8c0.8,0.8,0.8,1.3,0.1,2.3c-0.5,0.6-0.9,1.1-1.3,1.7c-0.5,0.7-0.6,1.2,0,1.8
		c1.1,1.3,0.8,2.7,0.3,4.2c0,0.1-0.3,0.3-0.4,0.3c-1.3,0.3-2.3-0.1-3.3-0.9c-0.3-0.3-0.3-0.8-0.4-1.2C51.7,68,51.7,67.8,51.7,67.6z"
		/>
	<path class="st4" d="M53.6,52.8c0,0.3,0,0.6-0.1,0.9c-0.3,1.2-0.6,2.5-1.2,3.6c-0.4,0.7-0.5,1.4-0.3,2.2c0.2,0.6,0.2,1.3,0.4,1.9
		c0.1,0.3-0.1,0.7-0.3,0.8c-0.3,0.2-0.7,0.5-1.1,0.6c-0.8,0.3-1.1,1-1.1,1.7c0,1,0.1,1.9,0.2,2.8c0,0.6-0.2,0.7-0.6,0.5
		c-0.2-0.1-0.3-0.2-0.5-0.2c-0.7-0.4-1.4-0.8-2.1-1.1c-0.4-0.2-0.5-0.4-0.3-0.7c0.1-0.4,0.3-0.7,0.6-1c0.8-0.9,1-1.9,0.4-3
		c-0.1-0.3-0.1-0.6,0.1-0.8c0.1,0,0.1-0.2,0.1-0.2c1.1-0.8,1.4-1.9,1.4-3.2c0-0.7,0.4-1.2,0.9-1.4c1.2-0.7,1.9-1.8,2.4-2.9
		c0.1-0.2,0.2-0.4,0.3-0.5c0.1-0.3,0.3-0.5,0.6-0.5C53.4,52.3,53.4,52.6,53.6,52.8z"/>
	<path class="st4" d="M64.2,64.2c-0.3-1-0.6-1.9-0.8-2.8c-0.1-0.5,0-1.1,0.1-1.7c0-1-0.4-1.8-0.8-2.6c-0.1-0.2-0.3-0.5-0.3-0.7
		C62,55.7,61.8,55,62,54.2c0.3-1.4-0.2-2.6-1.3-3.5c-0.3-0.2-0.5-0.4-0.7-0.7c-0.3-0.2-0.2-0.5,0.1-0.6c0.6-0.3,0.7-0.2,1,0.3
		c1.8,3.4,3.6,6.9,5.4,10.3c0.1,0.2,0.2,0.5,0,0.7c-0.7,1.2-1.4,2.3-2.1,3.5C64.4,64.2,64.3,64.1,64.2,64.2z"/>
</g>
<g>
	<rect x="73.3" y="49.7" class="st5" width="9.2" height="5.5"/>
	<rect x="73.3" y="52.1" class="st6" width="9.2" height="0.8"/>
	
		<rect x="75.1" y="52.1" transform="matrix(-1.836970e-16 1 -1 -1.836970e-16 130.3475 -25.4023)" class="st6" width="5.5" height="0.8"/>
</g>
<g>
	<rect x="73.3" y="44.3" class="st5" width="9.2" height="5.5"/>
	<path class="st6" d="M77.9,48.5c-0.8,0-1.4-0.6-1.4-1.4s0.6-1.4,1.4-1.4V48.5z"/>
	<path class="st6" d="M77.9,45.6c0.8,0,1.4,0.6,1.4,1.4s-0.6,1.4-1.4,1.4V45.6z"/>
</g>
<g class="st7">
	<rect x="69.7" y="47.1" class="st8" width="14.1" height="8.3"/>
	<rect x="76.2" y="50.7" class="st9" width="7.6" height="1.2"/>
	
		<rect x="72.9" y="50.9" transform="matrix(-1.836970e-16 1 -1 -1.836970e-16 128.3222 -25.7999)" class="st9" width="8.3" height="0.6"/>
	<path class="st9" d="M76.7,53.5c-1.2,0-2.2-1-2.2-2.2s1-2.2,2.2-2.2V53.5z"/>
</g>
</svg>
