<?xml version="1.0" encoding="utf-8"?>
<!-- Generator: Adobe Illustrator 23.0.3, SVG Export Plug-In . SVG Version: 6.00 Build 0)  -->
<svg version="1.1" id="Layer_1" xmlns="http://www.w3.org/2000/svg" xmlns:xlink="http://www.w3.org/1999/xlink" x="0px" y="0px"
	 viewBox="0 0 100 100" style="enable-background:new 0 0 100 100;" xml:space="preserve">
<style type="text/css">
	.st0{fill:#1C4484;}
	.st1{display:none;fill:#03539C;}
	.st2{display:none;fill:#2999C6;}
	.st3{display:none;fill:#FFFFFF;}
	.st4{fill:#CEAE29;}
</style>
<g id="XMLID_1_">
	<g>
		<circle class="st0" cx="50" cy="50" r="40"/>
	</g>
	<g>
	</g>
</g>
<path class="st1" d="M90,50H56.2V21.8H43.5V50H10c0-22.1,17.9-40,40-40S90,27.9,90,50z"/>
<path class="st2" d="M56.2,50H90c0,22.1-17.9,40-40,40S10,72.1,10,50h33.5v27.9h12.6V50H56.2z"/>
<rect x="43.5" y="50" class="st3" width="12.6" height="27.9"/>
<rect x="43.5" y="21.8" class="st3" width="12.6" height="28.2"/>
<circle class="st4" cx="50" cy="50" r="40"/>
<circle class="st0" cx="50" cy="50" r="33.3"/>
<g>
	<path class="st4" d="M26.3,62.7c0.3-0.7,0.7-1,1.3-1.2c1-0.4,1.8-1,2.5-1.8c0.5-0.4,1.1-0.8,1.7-1.1c1.1-0.6,2.2-1.2,3.1-2.1
		c0.2-0.2,0.4-0.3,0.6-0.5c1.2-0.8,1.7-2.1,1.9-3.4c0.1-1.1,0.3-2.3,0.5-3.4c0.1-0.5,0.4-0.9,0.6-1.3c1.1-1.3,1.9-2.9,2.6-4.5
		c0.4-0.9,0.9-1.6,1.6-2.2c1.2-0.9,1.9-2.2,2.7-3.3c0.1-0.2,0.2-0.7,0-1c-0.3-1.3-0.8-2.6-1.8-3.6c-0.4-0.4-0.7-1-1-1.5
		c-0.1-0.1-0.1-0.3-0.1-0.5c1.1-0.2,1.8-0.7,2.6-1.4c0.7-0.6,1.3-1.2,1.9-1.7c0.6-0.6,1.2-0.8,2.1-0.2c0.5,0.4,1.2,0.6,1.7,0.9
		c0.3,0.2,0.7,0.5,0.9,0.9c0.2,0.3,0.3,0.7,0.4,1.3c-0.2-0.1-0.4-0.2-0.5-0.3c-0.5-0.3-0.8-0.1-0.8,0.4c0,0.1,0,0.1,0,0.2
		c-0.1,0.7,0,1.1,0.6,1.5c0.6,0.4,0.6,0.8,0.1,1.4c-0.8,0.7-0.9,1.7-1,2.7c-0.1,1.3-0.2,2.5-0.2,3.8c0,1,0.3,1.9,0.9,2.6
		c0.5,0.6,0.9,0.7,1.5,0c0.7-0.8,1.2-1.6,1.9-2.4c1.2-1.7,2.4-3.6,3.6-5.3c0.6-0.9,1.2-1.7,1.8-2.6c0.4-0.5,0.5-1.1,0.4-1.8
		c-0.1-0.8-0.9-1-1.4-0.7c-0.4,0.2-0.6,0.5-0.9,0.7c-0.8,0.7-1.3,0.5-1.7-0.4c-0.5-1-0.4-2.1-0.2-3.2c0-0.1,0.1-0.2,0.1-0.2
		c1-0.7,1.8-1.6,2.9-2.2c1.2-0.8,2.5-0.7,3.8,0c0.7,0.4,1.5,0.8,2.1,1.3c1.5,1.3,1.6,2.7,0.8,4.4c-0.6,1.4-1.8,2.3-3.1,2.8
		c-4.4,1.9-7.1,5.3-8.9,9.5c0,0.1,0,0.1-0.1,0.2c0.5,0.1,0.9-0.1,1.3-0.4c0.6-0.5,1.2-0.7,1.8-0.8c0.9-0.3,1.8-0.8,2.7-1.2
		c0.8-0.4,1.1-0.4,1.5-0.1c0.5,0.4,0.6,1.1,0.3,1.8c-0.3,0.7-0.7,1.1-1.5,1.4c-1.2,0.3-2.3,0.6-3.4,1.1c-2.7,1.1-4.7,3.1-6,5.7
		c-0.3,0.6-0.5,1.2-0.8,1.8c-0.2,0.4-0.6,0.8-0.9,1.1c-0.5,0.5-1.2,0.8-2,0.8c-1.3-0.1-1.6,0.3-1.3,1.5c0.3,1.1-0.5,1.7-1.3,1.9
		c0,0,0,0-0.1,0c-1.1,0.3-1.2,0.2-1.2,1.6c0,0.4,0,0.9,0.1,1.3c0.2,1.1-0.3,1.9-1,2.7c-0.1,0.1-0.3,0.3-0.4,0.5
		c-0.8,0.8-1.7,0.8-2.7,0.3c-1.5-0.9-3.1-1.7-4.8-2c-1.4-0.3-2.9-0.2-4.4-0.4c-0.7-0.3-1.3,0-1.9,0.2C27.4,62.7,26.9,62.8,26.3,62.7
		z M46.3,46.9c0-0.3,0-0.7-0.1-1.1c-0.1-1.3-0.9-1.8-2.1-1.5c-0.9,0.3-1.7,0.9-2.4,1.6c-0.5,0.5-0.4,1.1-0.4,1.7c0,0.2,0,0.4,0,0.6
		c0,0.5-0.3,0.9-0.6,1.3c-0.6,0.5-0.9,1-1,1.7c-0.1,0.4-0.1,0.9,0,1c0.4,0.1,0.8,0.1,1.3,0.1c0.2,0,0.5-0.2,0.7-0.3
		c0.2-0.2,0.6-0.5,0.8-0.7c0.8-0.7,1.6-1.5,2.4-2.2c0.3-0.2,0.6-0.6,0.9-0.8C46.1,47.8,46.3,47.4,46.3,46.9z M48.6,29.9
		c0-0.2,0-0.3,0-0.4c-0.1-0.7-0.1-0.7-0.8-0.7c-0.3,0-0.8,0.2-1,0.4c-0.7,0.6-1.3,1.1-1.9,1.8s-0.7,1.6-0.2,2.2
		c0.6,0.7,1.4,0.7,2.2,0.1C47.9,32.4,48.3,31.2,48.6,29.9z"/>
	<path class="st4" d="M54.2,71.5c0.2-0.9,0.3-1.6,0.5-2.4c0-0.6,0-1.3-0.1-1.9c-0.1-0.4,0-0.8,0.3-1c1.2-0.9,1.7-2.3,1.8-3.8
		c0-0.3-0.2-0.8-0.3-1.1c-0.3-0.5-0.4-0.9,0-1.5c0.3-0.4,0.6-0.9,0.9-1.3c0.7-0.9,0.9-1.8,0.6-2.9c-0.3-0.9-0.6-1.9-0.9-2.8
		c1.6-0.2,2.3,0.3,2.2,1.7c0,0.9-0.3,1.6-0.5,2.5c-0.1,0.3-0.1,0.6,0.1,0.8c1,1.6,1.2,3.3,0.6,5.2c-0.1,0.3-0.4,0.7-0.5,1
		c-0.8,1.3-0.7,2.4,0,3.6c0.6,0.9,0.5,1.6-0.4,2.3C57.2,70.9,55.8,71.3,54.2,71.5z"/>
	<path class="st4" d="M48.2,67.6c-0.1-1.5,0.6-2.7,1.7-3.7c0.2-0.2,0.5-0.5,0.8-0.7c0.7-0.7,1.1-1.6,1.1-2.5c0-0.7,0.3-1.3,0.7-1.8
		c1-1.3,1.5-2.7,1.5-4.3c0-0.2-0.1-0.5,0.4-0.5c0.4,0,0.6,0,0.7,0.4c0.4,1.4,0,2.8-0.7,4c-0.2,0.5-0.5,0.8-0.7,1.2
		c-0.2,0.3-0.2,0.5,0,0.7c0.2,0.3,0.6,0.6,0.7,1c0.6,0.9,0.5,1.5-0.3,2.2c-0.6,0.5-1.1,0.9-1.6,1.4c-0.7,0.6-0.8,1.1-0.3,1.8
		c0.8,1.5,0.3,2.8-0.5,4.2c0,0.1-0.3,0.2-0.5,0.2c-1.3,0-2.3-0.5-3-1.6c-0.2-0.3-0.1-0.8-0.2-1.2C48.2,68,48.2,67.8,48.2,67.6z"/>
	<path class="st4" d="M53,53.5c-0.1,0.3-0.1,0.6-0.3,0.8c-0.6,1.2-1,2.3-1.8,3.3c-0.6,0.6-0.7,1.3-0.7,2.1c0.1,0.7,0,1.3,0,1.9
		c0,0.3-0.2,0.6-0.5,0.8c-0.4,0.2-0.8,0.4-1.2,0.4c-0.9,0.2-1.3,0.7-1.4,1.5c-0.1,0.9-0.2,1.9-0.4,2.8c-0.1,0.6-0.3,0.7-0.7,0.3
		c-0.1-0.1-0.3-0.2-0.4-0.3c-0.6-0.5-1.2-1.1-1.8-1.4c-0.4-0.2-0.4-0.5-0.2-0.8c0.2-0.3,0.5-0.7,0.8-0.9c1-0.7,1.3-1.7,0.9-2.9
		c-0.1-0.3,0-0.6,0.2-0.8c0.1,0,0.1-0.1,0.2-0.2c1.2-0.6,1.7-1.6,2-2.8c0.1-0.7,0.6-1.1,1.1-1.3c1.3-0.4,2.2-1.3,2.9-2.4
		c0.1-0.1,0.3-0.3,0.4-0.5c0.1-0.2,0.4-0.5,0.7-0.3C52.9,53,52.9,53.2,53,53.5z"/>
	<path class="st4" d="M61.2,66.7c-0.1-1-0.3-2-0.2-2.9c0-0.5,0.3-1.1,0.4-1.6c0.2-1-0.1-1.9-0.3-2.7c0-0.2-0.2-0.5-0.2-0.8
		c-0.3-0.7-0.3-1.4,0.1-2.2c0.6-1.3,0.3-2.6-0.6-3.7c-0.2-0.2-0.4-0.5-0.6-0.8c-0.2-0.2-0.1-0.5,0.2-0.6c0.6-0.1,0.7-0.1,0.9,0.5
		c1.1,3.7,2.2,7.5,3.3,11.2c0.1,0.2,0.1,0.5-0.1,0.7c-0.9,1-1.8,2-2.7,3C61.4,66.7,61.3,66.6,61.2,66.7z"/>
</g>
</svg>
