<?xml version="1.0" encoding="utf-8"?>
<!-- Generator: Adobe Illustrator 23.0.3, SVG Export Plug-In . SVG Version: 6.00 Build 0)  -->
<svg version="1.1" id="Layer_1" xmlns="http://www.w3.org/2000/svg" xmlns:xlink="http://www.w3.org/1999/xlink" x="0px" y="0px"
	 viewBox="0 0 100 100" style="enable-background:new 0 0 100 100;" xml:space="preserve">
<style type="text/css">
	.st0{fill:#5A91FF;}
	.st1{fill:#FFFE62;}
	.st2{display:none;fill:#03539C;}
	.st3{display:none;fill:#2999C6;}
	.st4{display:none;fill:#FFFFFF;}
</style>
<circle class="st0" cx="50" cy="50" r="40"/>
<g>
	<path class="st1" d="M15.1,52.4c0.7-0.6,1.4-0.8,2.2-0.7c1.4,0.1,2.6-0.2,3.9-0.6c0.8-0.2,1.7-0.3,2.6-0.3c1.6,0,3.2-0.1,4.7-0.7
		c0.3-0.1,0.6-0.2,0.9-0.2c1.8-0.3,3.1-1.4,4.1-2.9c0.8-1.2,1.6-2.5,2.5-3.6c0.4-0.5,0.9-0.8,1.4-1.1c2-0.9,3.8-2.2,5.5-3.7
		c0.9-0.8,1.9-1.4,3.1-1.6c1.9-0.4,3.4-1.4,5-2.3c0.3-0.2,0.6-0.7,0.6-1.1c0.4-1.7,0.5-3.4,0-5.1c-0.2-0.7-0.2-1.5-0.3-2.3
		c0-0.2,0.1-0.4,0.1-0.6c1.3,0.4,2.5,0.2,3.8-0.1c1.1-0.3,2.2-0.6,3.2-0.9c1-0.3,1.8-0.3,2.5,1c0.4,0.7,1,1.3,1.5,2
		c0.3,0.4,0.5,1,0.5,1.5c0.1,0.5-0.1,1-0.2,1.7c-0.2-0.3-0.3-0.5-0.4-0.6c-0.4-0.6-0.9-0.6-1.2,0c0,0.1-0.1,0.1-0.1,0.2
		c-0.5,0.7-0.6,1.3-0.2,2.1c0.4,0.8,0.2,1.3-0.7,1.6c-1.3,0.4-2,1.4-2.7,2.5c-0.8,1.4-1.6,2.8-2.4,4.2c-0.6,1.1-0.7,2.3-0.5,3.5
		c0.2,1,0.7,1.3,1.7,0.8c1.2-0.5,2.3-1.1,3.5-1.7c2.4-1.3,4.8-2.7,7.1-4.1c1.2-0.7,2.4-1.3,3.6-2c0.7-0.4,1.2-1,1.5-1.8
		c0.4-1-0.5-1.7-1.2-1.6c-0.5,0-0.9,0.2-1.4,0.3c-1.3,0.3-1.8-0.1-1.8-1.4c0-1.4,0.7-2.6,1.6-3.7c0.1-0.1,0.2-0.2,0.3-0.2
		c1.5-0.3,3-0.8,4.5-0.9c1.8-0.2,3.3,0.6,4.4,2.1c0.6,0.9,1.3,1.8,1.7,2.7c1,2.4,0.3,4-1.6,5.5c-1.5,1.2-3.3,1.6-5.2,1.5
		c-6.1-0.3-11.1,2.1-15.6,5.9c-0.1,0.1-0.1,0.1-0.2,0.2c0.5,0.4,1.1,0.4,1.7,0.3c0.9-0.2,1.7-0.1,2.5,0.1c1.2,0.2,2.5,0.1,3.8,0.1
		c1.1,0,1.5,0.1,1.8,0.8c0.3,0.7,0,1.6-0.6,2.2c-0.7,0.7-1.5,0.9-2.5,0.8c-1.5-0.3-3-0.6-4.5-0.7c-3.7-0.2-7.1,0.9-10.1,3.1
		c-0.7,0.5-1.3,1.1-1.9,1.6c-0.5,0.3-1.1,0.6-1.7,0.8c-0.9,0.3-1.8,0.3-2.7-0.2c-1.4-0.8-2-0.5-2.4,1c-0.3,1.4-1.5,1.7-2.6,1.5
		c0,0,0,0-0.1,0c-1.4-0.3-1.5-0.5-2.3,1.2c-0.2,0.5-0.5,1-0.6,1.6c-0.4,1.3-1.4,2-2.6,2.5c-0.2,0.1-0.5,0.2-0.7,0.3
		c-1.4,0.4-2.4,0-3.2-1.2c-1.2-1.9-2.6-3.7-4.4-5c-1.5-1.1-3.2-1.9-4.8-2.9C18.9,53.1,18,53,17.2,53C16.4,53,15.7,52.9,15.1,52.4z
		 M46.9,45.5c0.2-0.4,0.4-0.8,0.5-1.3c0.6-1.5,0-2.6-1.6-2.9c-1.2-0.2-2.4,0.1-3.6,0.5c-0.8,0.3-1.1,1-1.4,1.7
		c-0.1,0.2-0.2,0.5-0.4,0.7c-0.3,0.5-0.8,0.9-1.4,1.1c-0.9,0.2-1.6,0.7-2.1,1.4c-0.3,0.4-0.7,1-0.6,1.1c0.4,0.4,0.9,0.6,1.4,0.8
		c0.3,0.1,0.7,0,1,0c0.4-0.1,0.9-0.2,1.3-0.4c1.3-0.4,2.6-0.8,4-1.2c0.5-0.1,1-0.3,1.5-0.4C46.2,46.4,46.7,46.1,46.9,45.5z
		 M59.2,27.3c0.1-0.2,0.2-0.3,0.2-0.5c0.3-0.8,0.3-0.9-0.5-1.3c-0.4-0.2-1-0.2-1.4-0.1c-1.1,0.3-2.1,0.6-3.2,1
		c-1.1,0.4-1.7,1.4-1.5,2.4c0.3,1.1,1.2,1.6,2.5,1.4C57,29.8,58.1,28.6,59.2,27.3z"/>
	<path class="st1" d="M42.2,78.2c0.7-0.9,1.3-1.7,1.9-2.5c0.4-0.7,0.7-1.5,0.9-2.2c0.1-0.5,0.4-0.9,0.9-1c1.9-0.4,3.2-1.7,4.2-3.3
		c0.2-0.4,0.2-1,0.2-1.4c-0.1-0.8,0.1-1.3,0.8-1.7c0.6-0.3,1.2-0.7,1.8-1c1.3-0.6,2-1.6,2.3-3c0.2-1.2,0.4-2.5,0.6-3.7
		c2,0.7,2.5,1.6,1.6,3.2c-0.5,1-1.3,1.7-2,2.6c-0.3,0.3-0.4,0.6-0.3,1c0.2,2.4-0.5,4.5-2.2,6.3c-0.3,0.3-0.8,0.6-1.2,0.9
		c-1.6,1-2.2,2.4-2,4.2c0.1,1.4-0.3,2.1-1.7,2.4C45.9,79.2,44.1,78.8,42.2,78.2z"/>
	<path class="st1" d="M37.5,70.4c0.8-1.8,2.2-2.8,4-3.3c0.4-0.1,0.9-0.3,1.3-0.4c1.2-0.4,2.1-1.2,2.7-2.3c0.4-0.8,1-1.3,1.8-1.7
		c1.8-0.9,3.2-2.3,4.2-4.1c0.1-0.2,0.2-0.6,0.7-0.4c0.5,0.2,0.7,0.4,0.6,0.9c-0.3,1.9-1.5,3.2-3,4.2c-0.5,0.4-1,0.7-1.5,1
		c-0.4,0.2-0.5,0.4-0.4,0.8c0.1,0.5,0.3,1,0.3,1.5c0.2,1.4-0.2,2-1.6,2.4c-0.9,0.2-1.7,0.4-2.6,0.7c-1.1,0.3-1.5,0.8-1.4,1.9
		c0.1,2.2-1.3,3.4-2.9,4.5c-0.1,0.1-0.5,0.1-0.7,0c-1.5-0.7-2.3-1.9-2.6-3.5c-0.1-0.5,0.3-1,0.5-1.5C37.2,70.8,37.4,70.6,37.5,70.4z
		"/>
	<path class="st1" d="M50.9,56.8c-0.3,0.3-0.5,0.6-0.8,0.8c-1.3,1-2.5,2.1-4,2.8c-1,0.4-1.6,1.1-2,2c-0.3,0.8-0.8,1.5-1.1,2.2
		c-0.2,0.4-0.6,0.6-1,0.6c-0.5,0-1.1,0-1.6-0.2c-1.1-0.3-1.9,0.1-2.5,0.9c-0.7,1-1.3,2-2,3c-0.4,0.6-0.7,0.6-1,0
		c-0.1-0.2-0.2-0.4-0.3-0.6c-0.4-0.9-0.8-1.9-1.3-2.7c-0.3-0.5-0.2-0.8,0.2-1c0.4-0.3,0.9-0.5,1.4-0.6c1.5-0.3,2.5-1.2,2.7-2.8
		c0.1-0.4,0.3-0.7,0.7-0.8c0.1,0,0.2-0.1,0.3-0.1c1.7,0,2.9-0.9,3.9-2.1c0.5-0.7,1.3-0.9,2-0.8c1.7,0.2,3.3-0.3,4.7-1.1
		c0.2-0.1,0.5-0.2,0.7-0.3c0.3-0.2,0.7-0.3,1,0C51.1,56.2,50.9,56.5,50.9,56.8z"/>
	<path class="st1" d="M52.9,76.6c0.5-1.2,0.8-2.4,1.4-3.5c0.3-0.6,0.9-1.1,1.4-1.6c0.8-1,1-2.2,1.2-3.3c0.1-0.3,0.1-0.7,0.2-1
		c0.1-1,0.5-1.8,1.3-2.5c1.4-1.2,1.8-2.8,1.4-4.6c-0.1-0.4-0.2-0.8-0.2-1.2c-0.1-0.4,0.2-0.6,0.6-0.5c0.8,0.2,0.9,0.3,0.8,1.1
		c-0.8,4.9-1.7,9.8-2.5,14.7c0,0.3-0.2,0.6-0.5,0.7c-1.6,0.7-3.2,1.3-4.8,1.9C53.1,76.7,53,76.6,52.9,76.6z"/>
</g>
<path class="st2" d="M90,50H56.2V21.8H43.5V50H10c0-22.1,17.9-40,40-40S90,27.9,90,50z"/>
<path class="st3" d="M56.2,50H90c0,22.1-17.9,40-40,40S10,72.1,10,50h33.5v27.9h12.6V50z"/>
<rect x="43.5" y="50" class="st4" width="12.6" height="27.9"/>
<rect x="43.5" y="21.8" class="st4" width="12.6" height="28.2"/>
</svg>
