<?xml version="1.0" encoding="utf-8"?>
<!-- Generator: Adobe Illustrator 23.0.3, SVG Export Plug-In . SVG Version: 6.00 Build 0)  -->
<svg version="1.1" id="Layer_1" xmlns="http://www.w3.org/2000/svg" xmlns:xlink="http://www.w3.org/1999/xlink" x="0px" y="0px"
	 viewBox="0 0 100 100" style="enable-background:new 0 0 100 100;" xml:space="preserve">
<style type="text/css">
	.st0{fill:#010101;}
	.st1{fill:#FFFFFF;}
	.st2{fill:none;stroke:#231F20;stroke-width:0.5;stroke-miterlimit:10;}
</style>
<g id="XMLID_1_">
	<g>
		<g id="XMLID_2_">
			<g>
				<path class="st0" d="M91.5,62.2c0.2,0,0.4,0,0.5-0.1C91.8,62.1,91.7,62.2,91.5,62.2z"/>
				<path class="st0" d="M91.5,62.2c-0.9,0-1.8-0.2-2.5-0.6C89.7,61.9,90.6,62.2,91.5,62.2z"/>
				<path class="st0" d="M88.6,18.2c0.3,0.3,0.5,0.6,0.8,0.9C89.1,18.8,88.8,18.5,88.6,18.2z"/>
				<path class="st0" d="M88.1,60.9c0.2,0.2,0.5,0.5,0.8,0.6C88.7,61.3,88.4,61.1,88.1,60.9z"/>
				<path class="st0" d="M87.7,60.3c0.1,0.2,0.3,0.4,0.5,0.5C88,60.7,87.8,60.5,87.7,60.3z"/>
				<path class="st0" d="M87,59c0.1,0.4,0.3,0.7,0.5,1C87.3,59.7,87.1,59.4,87,59c-0.6-1.7-0.1-3.4,1.1-4.6
					C86.9,55.6,86.5,57.4,87,59z"/>
				<path class="st0" d="M85.4,14.7c0.3,0.3,0.6,0.6,0.8,0.8C85.9,15.2,85.6,14.9,85.4,14.7z"/>
				<path class="st0" d="M81.8,11.4c1.2,1,2.4,2.1,3.5,3.2C84.2,13.5,83,12.4,81.8,11.4z"/>
				<path class="st0" d="M85.1,64.4c0.8-0.6,1.7-0.9,2.7-0.9c1.2,0,2.5,0.5,3.3,1.5C89.5,63.4,87,63.1,85.1,64.4
					c-0.8,0.6-1.3,1.3-1.6,2.2C83.8,65.7,84.3,65,85.1,64.4z"/>
				<path class="st0" d="M84.4,71.1L84.4,71.1c-2.7,4.4-6.3,8.4-10.7,11.6c-4.4,3.2-9.3,5.4-14.3,6.6c0,0,0,0,0,0
					c5-1.2,9.8-3.4,14.3-6.6C78.1,79.5,81.7,75.5,84.4,71.1z"/>
				<path class="st0" d="M83.5,66.6c-0.1,0.1-0.1,0.3-0.1,0.5c0,0,0-0.1,0-0.1C83.4,66.8,83.4,66.7,83.5,66.6z"/>
				<path class="st0" d="M81.9,67.8c1.2-2.4,0.7-5.2-0.9-7.1c1.4,1.6,2,3.8,1.4,5.9C82.3,67,82.1,67.4,81.9,67.8z"/>
				<path class="st0" d="M80.6,15.4c-0.1,0-0.3-0.1-0.4-0.1C80.3,15.4,80.4,15.4,80.6,15.4z"/>
				<path class="st1" d="M75.9,16.3c0.1-0.1,0.2-0.1,0.3-0.2c0.1-0.1,0.2-0.1,0.3-0.2c0.3-0.2,0.6-0.3,1-0.5
					c0.9-0.3,1.8-0.3,2.7-0.1c0.1,0,0.3,0.1,0.4,0.1c0.3,0.1,0.5,0.2,0.8,0.4c0.2,0.1,0.5,0.3,0.7,0.5l0,0c3.8,3.5,7,7.8,9.4,12.5
					c0.4,0.7,0.7,1.5,1.1,2.2c0.7,1.5,1.3,3,1.8,4.6l0,0c2.5,7.7,2.9,15.6,1.5,23.1h0c-0.2,0.9-0.8,1.7-1.5,2.3c0,0,0,0,0,0
					c-0.3,0.2-0.6,0.4-0.9,0.6c-0.2,0.1-0.4,0.1-0.6,0.2c-0.2,0.1-0.5,0.1-0.7,0.2c-0.2,0-0.4,0-0.5,0.1c-0.9,0-1.8-0.2-2.5-0.6h0
					c-0.3-0.2-0.6-0.4-0.8-0.6c-0.2-0.2-0.3-0.4-0.5-0.5c-0.1-0.1-0.1-0.2-0.2-0.3c-0.2-0.3-0.3-0.6-0.5-1c-0.5-1.7-0.1-3.4,1.1-4.6
					c0.5-0.5,1.1-0.9,1.8-1.1c0.1,0,0.3-0.1,0.4-0.1h0c0,0,0,0,0,0c0.4-5.1-0.2-10.4-1.9-15.6C87,33,84.8,28.9,82,25.3
					c-0.4-0.5-0.8-1-1.2-1.5v0c-0.1,0.1-0.3,0.1-0.4,0.2c-1.7,0.5-3.4,0.1-4.6-1.1c-0.5-0.5-0.9-1.1-1.1-1.8
					c-0.5-1.6-0.1-3.2,0.8-4.3c0.1-0.1,0.1-0.2,0.2-0.3C75.8,16.4,75.8,16.3,75.9,16.3z"/>
				<path class="st0" d="M78.8,51.6c-0.6-0.4-1.3-0.6-2-0.7c0,0,0,0,0,0v0C77.5,51,78.2,51.2,78.8,51.6c2.5,1.4,3.6,4.2,3.1,6.8
					C82.5,55.8,81.3,53,78.8,51.6z"/>
				<path class="st0" d="M76.5,15.8c0.3-0.2,0.6-0.4,1-0.5c0.9-0.3,1.8-0.3,2.7,0c-0.8-0.2-1.8-0.2-2.7,0.1
					C77.2,15.5,76.8,15.6,76.5,15.8z"/>
				<path class="st0" d="M75.9,7.2c1.4,0.8,2.7,1.7,4,2.7C78.6,9,77.3,8.1,75.9,7.2z"/>
				<path class="st0" d="M76.2,16c-0.1,0.1-0.2,0.2-0.3,0.2c0,0,0,0,0,0C76,16.2,76.1,16.1,76.2,16z"/>
				<path class="st0" d="M75.9,16.3c-0.1,0.1-0.2,0.2-0.2,0.2C75.8,16.4,75.8,16.3,75.9,16.3z"/>
				<path class="st0" d="M75.5,16.8c0.1-0.1,0.1-0.2,0.2-0.3C75.6,16.6,75.5,16.7,75.5,16.8z"/>
				<path class="st0" d="M73.8,6c0.7,0.4,1.4,0.8,2.1,1.2C75.2,6.8,74.5,6.4,73.8,6z"/>
				<path class="st0" d="M74.4,13.1c0,0.6-0.1,1.2-0.4,1.8C74.3,14.3,74.4,13.7,74.4,13.1c0-1.2-0.5-2.3-1.2-3.1
					C74,10.8,74.4,11.9,74.4,13.1z"/>
				<path class="st0" d="M74.3,56c-0.3,0.1-0.6,0.1-0.9,0.2C73.7,56.1,74,56.1,74.3,56C74.3,56,74.3,56,74.3,56z"/>
				<path class="st0" d="M73.4,16c-0.1,0.1-0.2,0.2-0.3,0.3C73.2,16.2,73.3,16.1,73.4,16z"/>
				<path class="st0" d="M73.1,16.3c-0.1,0.1-0.2,0.2-0.3,0.3C72.9,16.5,73,16.4,73.1,16.3z"/>
				<path class="st0" d="M72.8,16.6c-0.4,0.4-1,0.7-1.6,0.8C71.8,17.3,72.4,17,72.8,16.6z"/>
				<path class="st0" d="M71.7,56.9c0.5-0.3,1.1-0.5,1.7-0.7C72.9,56.4,72.3,56.6,71.7,56.9z"/>
				<path class="st0" d="M70.2,57.9c-0.2,0.2-0.5,0.4-0.7,0.6C69.7,58.3,69.9,58.1,70.2,57.9z"/>
				<path class="st0" d="M68.3,3.5c0.8,0.3,1.5,0.6,2.3,1C69.8,4.1,69.1,3.8,68.3,3.5z"/>
				<path class="st0" d="M69.3,51.7c-0.3,0.1-0.6,0.2-0.9,0.4C68.7,51.9,69,51.8,69.3,51.7C69.3,51.7,69.3,51.7,69.3,51.7z"/>
				<path class="st0" d="M68.3,60c0.2-0.3,0.4-0.5,0.6-0.8C68.6,59.5,68.5,59.8,68.3,60z"/>
				<path class="st1" d="M68.6,7.4c1.3,0.6,2.6,1.2,3.8,1.9l0,0h0c0.3,0.2,0.6,0.4,0.8,0.7c0.7,0.8,1.2,1.9,1.2,3.1
					c0,0.6-0.1,1.2-0.4,1.8c-0.2,0.4-0.4,0.8-0.7,1.1c-0.1,0.1-0.2,0.2-0.3,0.3c-0.1,0.1-0.2,0.2-0.3,0.3c-0.4,0.4-1,0.7-1.6,0.8
					c-0.4,0.1-0.9,0.2-1.3,0.2s-0.9-0.1-1.4-0.2c-0.7-0.2-1.3-0.6-1.8-1.1c-0.2-0.2-0.4-0.4-0.6-0.7c-0.2-0.2-0.3-0.5-0.4-0.8
					c-0.2-0.5-0.4-1.1-0.4-1.8c0-0.1,0-0.3,0-0.4c0,0,0,0,0,0c0,0,0,0,0,0c-0.6-0.2-1.2-0.5-1.8-0.7c-4.2-1.5-8.8-2.4-13.6-2.4
					c-5.5,0-10.7,1.1-15.5,3.1v0c0,0.2,0,0.3,0,0.5c0,1.9-1.1,3.5-2.8,4.2c-0.5,0.2-1.1,0.4-1.8,0.4c-1.1,0-2.1-0.4-2.9-1
					c-0.3-0.3-0.6-0.6-0.9-0.9c-0.5-0.7-0.8-1.6-0.8-2.5c0-1.3,0.5-2.4,1.3-3.2c0.3-0.3,0.6-0.5,0.9-0.7v0l0,0
					C28.2,9,28.6,8.8,29,8.5c0.8-0.4,1.7-0.8,2.6-1.2c0.9-0.4,1.7-0.7,2.6-1c4-1.5,8.3-2.4,12.7-2.7c1-0.1,2-0.1,3.1-0.1
					c3.1,0,6,0.3,8.9,0.8c1,0.2,1.9,0.4,2.9,0.6c0.5,0.1,0.9,0.3,1.4,0.4c1.4,0.4,2.7,0.9,4.1,1.4C67.7,7,68.1,7.2,68.6,7.4z"/>
				<path class="st0" d="M63.2,5.4c1.4,0.4,2.7,0.9,4.1,1.4C65.9,6.3,64.6,5.8,63.2,5.4z"/>
				<path class="st0" d="M63.9,35.4c-0.1,0.2-0.3,0.4-0.5,0.6C63.6,35.8,63.8,35.6,63.9,35.4z"/>
				<path class="st0" d="M65.2,31.5c0-2.1-1-4-2.6-5.2c0,0,0,0,0,0h0C64.2,27.4,65.3,29.3,65.2,31.5c0,1.4-0.5,2.8-1.3,3.9
					C64.8,34.3,65.2,32.9,65.2,31.5z"/>
				<path class="st0" d="M60.3,42c0.9-1.5,1.6-3.2,1.8-5h0v0C61.9,38.8,61.2,40.5,60.3,42z"/>
				<path class="st0" d="M58.9,4.4c1,0.2,1.9,0.4,2.9,0.6C60.8,4.8,59.9,4.6,58.9,4.4z"/>
				<path class="st0" d="M67.2,46.2c-3.3-1.5-7.1-1.3-10.2,0.3c0,0,0,0,0,0C60.2,45,63.9,44.8,67.2,46.2L67.2,46.2z"/>
				<path class="st0" d="M57.8,55.5l3.2,1.7L57.8,55.5z"/>
				<path class="st0" d="M57,46.5C57,46.6,57,46.6,57,46.5L57,46.5L57,46.5z"/>
				<path class="st0" d="M57,46.5L57,46.5c-0.3,0.2-0.6,0.3-0.9,0.5C56.4,46.9,56.7,46.7,57,46.5z"/>
				<path class="st0" d="M56.6,45.7l0.4,0.8h0L56.6,45.7C56.6,45.7,56.6,45.7,56.6,45.7z"/>
				<path class="st0" d="M56.1,17.9c-0.8-2.6-3.3-4.5-6.2-4.5l-0.1-3.8c0.1,0,0.1,0,0.2,0c4.8,0,9.4,0.8,13.6,2.3
					c0.6,0.2,1.2,0.4,1.8,0.7c0,0,0,0,0,0c0,0.1,0,0.3,0,0.4c0,0.6,0.1,1.2,0.4,1.8c0.1,0.3,0.3,0.5,0.4,0.8
					c0.2,0.2,0.3,0.5,0.6,0.7c0.5,0.5,1.1,0.9,1.8,1.1c0.4,0.1,0.9,0.2,1.4,0.2s0.9-0.1,1.3-0.2c0.6-0.2,1.1-0.5,1.6-0.8
					c0.1-0.1,0.2-0.2,0.3-0.3c0.1-0.1,0.2-0.2,0.3-0.3l2.5,0.3c0,0,0,0,0,0c-0.1,0.1-0.2,0.2-0.2,0.2c-0.1,0.1-0.2,0.2-0.2,0.3
					c-1,1.2-1.3,2.8-0.8,4.3c0.2,0.7,0.6,1.3,1.1,1.8c1.2,1.2,2.9,1.6,4.6,1.1c0.1-0.1,0.3-0.1,0.4-0.2c0.4,0.5,0.8,1,1.2,1.5
					c2.8,3.6,5,7.7,6.5,12.3c1.7,5.2,2.3,10.5,1.9,15.6c0,0,0,0,0,0h0c-0.1,0-0.3,0.1-0.4,0.1c-0.7,0.2-1.3,0.6-1.8,1.1
					c-1.2,1.2-1.6,2.9-1.1,4.6c0.1,0.4,0.3,0.7,0.5,1c0.1,0.1,0.1,0.2,0.2,0.3c0.1,0.2,0.3,0.4,0.5,0.5c0.3,0.3,0.5,0.5,0.8,0.6
					l-1.2,2c-0.9,0-1.8,0.3-2.7,0.9c-0.8,0.6-1.3,1.3-1.6,2.2c-0.1,0.1-0.1,0.2-0.1,0.4l-1-0.3c0.6-2.1,0-4.3-1.4-5.9v0
					c0.1-0.1,0.1-0.2,0.2-0.3c0,0,0,0,0,0c0.4-0.6,0.6-1.3,0.7-2c0.5-2.6-0.6-5.4-3.1-6.8c-0.6-0.4-1.3-0.6-2-0.7v0c0,0,0,0,0,0h0
					c-0.3-1.9-1.4-3.7-3.2-4.7c-2.1-1.2-4.5-1.1-6.4,0l0,0.1c-3.3-1.5-7.1-1.3-10.2,0.3c0,0,0,0,0,0l-0.4-0.8c0,0,0,0,0,0
					c1.5-0.9,2.7-2.2,3.7-3.7c1-1.5,1.6-3.2,1.8-5h0c0.2-0.1,0.4-0.3,0.7-0.5c0.2-0.2,0.4-0.4,0.6-0.6c0.2-0.2,0.4-0.4,0.5-0.6
					c0,0,0,0,0,0c0.8-1.1,1.3-2.4,1.3-3.9c0-2.1-1-4-2.6-5.2c0.2-0.6,0.3-1.3,0.3-1.9c0-3.6-2.9-6.4-6.4-6.4
					C56.4,17.9,56.2,17.9,56.1,17.9z"/>
				<path class="st0" d="M56.1,17.9c0.1,0,0.3,0,0.4,0c3.6,0,6.4,2.9,6.4,6.4c0,0.7-0.1,1.3-0.3,1.9h0v0c0.2-0.6,0.3-1.2,0.3-1.9
					c0-3.6-2.9-6.4-6.4-6.4C56.3,17.9,56.2,17.9,56.1,17.9C56.1,17.9,56,17.9,56.1,17.9C56.1,17.9,56.1,17.9,56.1,17.9z"/>
				<path class="st0" d="M59.2,88.9c-1.5-2-4.3-2.5-6.3-1c-0.8,0.6-1.3,1.3-1.6,2.1c0.3-0.8,0.8-1.6,1.6-2.2
					C54.9,86.4,57.7,86.9,59.2,88.9c0.1,0,0.1,0.1,0.1,0.2C59.3,89,59.2,89,59.2,88.9z"/>
				<path class="st0" d="M54.4,48.3c0.5-0.5,1.1-0.9,1.7-1.3C55.5,47.4,55,47.9,54.4,48.3z"/>
				<path class="st0" d="M50,3.5c3,0,6,0.3,8.9,0.9C56,3.8,53,3.5,50,3.5c-1,0-2.1,0-3.1,0.1C47.9,3.6,49,3.5,50,3.5z"/>
				<path class="st1" d="M51.8,94.3c-0.3-0.4-0.5-0.9-0.6-1.3C51,92.5,51,92,51,91.6c0-0.5,0.1-1,0.3-1.5c0.3-0.8,0.8-1.6,1.6-2.1
					c2-1.5,4.9-1,6.3,1c0,0.1,0.1,0.1,0.1,0.2c0,0.1,0.1,0.1,0.1,0.2c0,0,0,0,0,0c5-1.2,9.8-3.4,14.3-6.6c4.4-3.2,8-7.2,10.7-11.6
					l0,0c-0.1-0.1-0.2-0.2-0.3-0.4c-0.1-0.1-0.1-0.2-0.2-0.3c-0.2-0.3-0.3-0.6-0.4-1c-0.3-0.8-0.3-1.6-0.1-2.4
					c0-0.2,0.1-0.3,0.1-0.5c0.3-0.8,0.8-1.6,1.6-2.1c1.9-1.4,4.4-1.1,6,0.6c0.1,0.1,0.2,0.3,0.3,0.4c0.1,0.1,0.2,0.2,0.2,0.4
					c0.8,1.3,0.8,2.9,0.3,4.2l0,0c-0.4,0.8-0.8,1.7-1.3,2.5c-0.7,1.2-1.4,2.4-2.2,3.6c-1.6,2.4-3.5,4.6-5.5,6.7
					c-0.7,0.7-1.4,1.4-2.1,2c-1.1,1-2.3,1.9-3.5,2.8c-1.6,1.2-3.3,2.3-5.1,3.2c-0.4,0.2-0.9,0.5-1.3,0.7c-0.9,0.4-1.8,0.8-2.7,1.2
					c-0.9,0.4-1.8,0.7-2.7,1.1c-3.2,1.1-6.5,1.9-9.8,2.3l-0.2,0C54.1,96.1,52.7,95.5,51.8,94.3z"/>
				<path class="st0" d="M50.5,30.6c2-0.1,3.8-1.1,5.1-2.5C54.3,29.5,52.5,30.5,50.5,30.6L50.5,30.6z"/>
				<path class="st0" d="M50.4,57.3c0-0.6,0-1.1,0.1-1.7C50.5,56.2,50.4,56.7,50.4,57.3L50.4,57.3z"/>
				<path class="st1" d="M50.4,57.3c0-0.6,0-1.1,0.1-1.7c0-0.1,0-0.2,0-0.3c0.1-0.6,0.2-1.1,0.4-1.7v-0.1c0.6-0.1,1.1-0.4,1.6-0.8
					l0,0l3.6,1.9c-1.6,3.5-1.1,7.4,1,10.3l0.1,0c-1.1-3-1-6.4,0.5-9.5l0,0h0l3.2,1.7c-1.4,2.9-1.3,6.1,0.1,8.8c0,0,0,0,0,0
					c0,0,0,0,0,0c-0.3-1.9-0.2-3.9,0.4-5.8c0.2-0.8,0.5-1.5,0.9-2.2l4.2,2.2c-1.3,2.6-0.9,5.7,0.8,7.9c0,0,0,0,0,0
					c-0.8-2.3-0.7-4.9,0.5-7.3l7.9,4.1l-7.4-4.7l0,0v0c0.2-0.3,0.4-0.5,0.6-0.8c0.2-0.2,0.4-0.5,0.6-0.7c0.2-0.2,0.4-0.4,0.7-0.6
					c0.5-0.4,1-0.7,1.6-1s1.1-0.5,1.7-0.7c0.3-0.1,0.6-0.1,0.9-0.2c0,0,0,0,0,0c0,0,0,0,0,0c-1.1-0.2-2.3-0.1-3.3,0.3
					c-0.3,0.1-0.6,0.2-0.8,0.3s-0.5,0.3-0.8,0.4c-0.9,0.6-1.7,1.3-2.3,2.3c0,0,0,0,0,0l-4-2.5l0,0c0,0,0,0,0,0
					c1.4-2.1,3.2-3.7,5.3-4.7c0.3-0.1,0.6-0.3,0.9-0.4v0c-0.6,0-1.1,0.1-1.7,0.2c-1.8,0.4-3.5,1.3-4.9,2.7c-0.4,0.4-0.8,0.8-1.1,1.3
					c0,0,0,0,0,0v0l-3-1.9l0,0c2-3,5.2-4.9,8.7-5.3v0c0,0,0,0-0.1,0c0,0,0,0,0.1,0c-3.2-0.5-6.5,0.6-8.9,2.9
					c-0.2,0.1-0.3,0.3-0.4,0.5c-0.1,0.1-0.3,0.3-0.4,0.5c0,0,0,0,0,0c-0.1,0.2-0.3,0.3-0.4,0.5h0l-3.4-2.2c0.1-0.6,0.1-1.1,0-1.7
					c0.2-0.3,0.5-0.5,0.8-0.8c0.5-0.5,1.1-0.9,1.7-1.3c0,0,0,0,0,0c0.3-0.2,0.6-0.3,0.9-0.5c0,0,0,0,0,0c3.1-1.6,6.8-1.8,10.2-0.3
					l0,0l0-0.1c1.9-1.1,4.4-1.2,6.4,0c1.8,1,2.9,2.8,3.2,4.7h0c0.7,0.1,1.3,0.4,2,0.7c2.5,1.4,3.6,4.2,3.1,6.8
					c-0.1,0.7-0.4,1.3-0.7,2c0,0,0,0,0,0c-0.1,0.1-0.1,0.2-0.2,0.3v0c1.7,1.9,2.1,4.7,0.9,7.1c-0.1,0.1-0.1,0.3-0.2,0.4v0
					c-0.2,0.3-0.3,0.5-0.5,0.7c-0.2,0.2-0.4,0.4-0.6,0.6c-1.4,1.4-3.3,2-5.2,1.8c0,0-0.1,0-0.1,0c-0.2,0-0.4-0.1-0.6-0.1v0
					c-0.1,0.1-0.1,0.2-0.2,0.4c-0.3,0.5-0.7,1-1.1,1.4c-1.8,1.8-4.6,2.4-7,1.4c0,0,0,0,0,0c-0.3-0.1-0.5-0.2-0.8-0.4
					c-0.6-0.3-1.1-0.8-1.5-1.2c-1.8,0.8-3.9,0.7-5.8-0.3c-0.5-0.3-1-0.6-1.3-1c-1.2-1.2-1.8-2.8-1.9-4.4l0,0v0
					c-0.4-0.3-0.8-0.6-1.1-0.9c-1.2-1.1-2.1-2.5-2.8-4c-0.1-0.2-0.2-0.4-0.2-0.6C50.7,60.1,50.4,58.7,50.4,57.3L50.4,57.3L50.4,57.3
					L50.4,57.3z"/>
				<path class="st0" d="M49.9,13.4c2.9,0,5.3,1.9,6.2,4.5c0,0,0,0,0,0C55.2,15.3,52.8,13.4,49.9,13.4c-1.8,0-3.4,0.8-4.6,1.9
					C46.5,14.1,48.1,13.4,49.9,13.4z"/>
				<path class="st0" d="M49.4,57.3c0,1.4-0.3,2.7-0.7,4C49.1,60,49.4,58.7,49.4,57.3L49.4,57.3z"/>
				<path class="st0" d="M48.5,94c0.2-0.3,0.3-0.6,0.4-1C48.8,93.3,48.7,93.7,48.5,94z"/>
				<path class="st0" d="M48.1,62.6L48.1,62.6C48.1,62.6,48.1,62.6,48.1,62.6z"/>
				<path class="st0" d="M47.4,63.8c-0.3,0.5-0.7,1-1.1,1.4C46.7,64.8,47.1,64.3,47.4,63.8z"/>
				<polygon class="st0" points="46.2,50.8 42.8,53 42.8,53 42.8,53 				"/>
				<path class="st0" d="M47.1,40.3c-0.6-0.1-1.3-0.4-1.8-0.6C45.8,39.9,46.5,40.1,47.1,40.3z"/>
				<path class="st0" d="M48.2,94.3c-1,1.4-2.6,2-4.2,1.8l0,0C45.7,96.3,47.2,95.6,48.2,94.3z"/>
				<path class="st0" d="M44.6,67.3c0,0.3-0.1,0.5-0.1,0.8C44.5,67.9,44.6,67.6,44.6,67.3z"/>
				<path class="st0" d="M44.5,68.1c0,0.2-0.1,0.5-0.2,0.7C44.4,68.6,44.4,68.4,44.5,68.1z"/>
				<path class="st1" d="M11.2,63.8c1.2-0.3,2.6-0.1,3.7,0.7h0c0.1,0.1,0.3,0.2,0.4,0.4c0.1,0.1,0.2,0.3,0.4,0.4
					c0.3,0.4,0.6,0.9,0.8,1.4c0.5,1.3,0.4,2.7-0.4,3.9c-0.1,0.1-0.1,0.2-0.2,0.3c0,0.1-0.1,0.1-0.1,0.2c-0.1,0.1-0.1,0.1-0.1,0.1
					c0,0,0,0,0,0c0,0,0,0,0,0v0c2.7,4.4,6.3,8.3,10.7,11.5c4.4,3.2,9.3,5.4,14.3,6.6c0,0,0,0,0,0c0.1-0.1,0.1-0.3,0.2-0.4
					c0.1-0.1,0.2-0.3,0.4-0.4c0.3-0.3,0.5-0.5,0.8-0.7c0,0,0,0,0,0c0.3-0.2,0.6-0.3,0.9-0.5c0.2-0.1,0.3-0.1,0.5-0.1
					c1.2-0.3,2.6-0.1,3.7,0.8c0.8,0.6,1.3,1.3,1.6,2.1c0.2,0.5,0.3,1,0.3,1.5c0,0.5-0.1,0.9-0.2,1.4c-0.1,0.3-0.3,0.7-0.4,1
					c-0.1,0.1-0.1,0.2-0.2,0.3c-1,1.3-2.6,2-4.1,1.8l0,0v0c-5.1-0.7-10.2-2.2-15-4.6c-0.9-0.4-1.7-0.9-2.6-1.4
					c-1.3-0.8-2.5-1.6-3.7-2.5c-6.6-4.8-11.5-11-14.8-17.8l0,0c-0.5-1.4-0.4-3,0.6-4.3c0.1-0.1,0.2-0.3,0.4-0.4
					C9.6,64.5,10.4,64,11.2,63.8z"/>
				<path class="st0" d="M45.2,39.7c-1.2-0.5-2.3-1.2-3.3-2C42.9,38.5,44,39.2,45.2,39.7z"/>
				<path class="st0" d="M43.4,17.8c-1.1,0-2.2,0.3-3.1,0.8C41.2,18.1,42.3,17.8,43.4,17.8c0.2,0,0.3,0,0.4,0c0,0,0,0,0,0l0,0
					C43.7,17.8,43.5,17.8,43.4,17.8z"/>
				<path class="st0" d="M43.3,46.7L44,46L43.3,46.7z"/>
				<path class="st0" d="M42.8,71.4c0.2-0.2,0.4-0.4,0.6-0.6C43.1,71,43,71.2,42.8,71.4z"/>
				<path class="st0" d="M43.1,63.9c0,0.1,0,0.2-0.1,0.3C43,64.1,43.1,64,43.1,63.9z"/>
				<path class="st0" d="M42.8,64.9c0-0.1,0.1-0.3,0.1-0.4C42.9,64.6,42.8,64.8,42.8,64.9z"/>
				<path class="st0" d="M42.8,64.9c-0.1,0.2-0.2,0.5-0.3,0.7h0C42.6,65.4,42.7,65.2,42.8,64.9z"/>
				<path class="st0" d="M41.8,32.4c0.5,0.4,1.1,0.8,1.6,1.1C42.9,33.3,42.4,32.9,41.8,32.4C41.8,32.5,41.8,32.4,41.8,32.4z"/>
				<path class="st0" d="M42,37.6c-0.2-0.1-0.3-0.3-0.5-0.4C41.6,37.3,41.8,37.5,42,37.6z"/>
				<path class="st0" d="M41,36.7c0.1,0.2,0.3,0.3,0.4,0.4C41.3,37,41.2,36.9,41,36.7z"/>
				<path class="st0" d="M40.6,36.3c0.1,0.2,0.3,0.3,0.4,0.5C40.9,36.6,40.7,36.4,40.6,36.3z"/>
				<polygon class="st0" points="40.2,35.7 40.2,35.8 40.2,35.7 				"/>
				<path class="st0" d="M39,57.2c1.2,2.5,1.2,5.2,0.3,7.6C40.2,62.4,40.2,59.7,39,57.2L39,57.2z"/>
				<path class="st0" d="M39.3,64.8L39.3,64.8C39.3,64.8,39.3,64.8,39.3,64.8z"/>
				<path class="st0" d="M39.1,65.3C39.1,65.4,39.1,65.4,39.1,65.3C39.1,65.4,39.1,65.4,39.1,65.3z"/>
				<path class="st1" d="M49.1,40.6c-0.7-0.1-1.4-0.1-2-0.3c-0.6-0.2-1.3-0.4-1.8-0.6c-1.2-0.5-2.3-1.2-3.3-2
					c-0.2-0.1-0.3-0.3-0.5-0.4c-0.1-0.1-0.3-0.3-0.4-0.4c0,0,0,0,0,0c-0.1-0.1-0.3-0.3-0.4-0.5c-0.1-0.2-0.3-0.3-0.4-0.5v0h0l0,0
					c1.4,3.6,4.8,6.2,8.8,6.6v0l-0.2,4c-0.6,0.2-1.1,0.5-1.5,0.9C46.2,47,45,46.5,44,45.9l0,0c-3.2-1.9-5.4-5.1-5.9-9L38,37
					c-1.9-1.1-3.2-3.2-3.2-5.6c0-1.8,0.8-3.5,2-4.6c0.2-0.1,0.3-0.3,0.5-0.4c0,0,0,0,0,0v0c-0.2-0.7-0.4-1.4-0.4-2.1
					c0-1.1,0.3-2.2,0.8-3.1c0.6-1.1,1.5-2,2.6-2.6c0.9-0.5,2-0.8,3.1-0.8c0.1,0,0.3,0,0.4,0l0,0c0,0,0,0,0,0h0c0,0,0,0,0,0
					c0.1-0.2,0.1-0.3,0.2-0.5c0.3-0.7,0.8-1.4,1.3-2c1.2-1.2,2.8-1.9,4.6-1.9c2.9,0,5.3,1.9,6.1,4.5c0,0,0,0,0,0c0.1,0,0.3,0,0.4,0
					c3.6,0,6.4,2.9,6.4,6.4c0,0.7-0.1,1.3-0.3,1.9v0c0,0,0,0,0,0c1.6,1.2,2.6,3,2.6,5.2c0,1.4-0.5,2.8-1.3,3.9c0,0,0,0,0,0
					c-0.2,0.2-0.3,0.4-0.5,0.6c-0.2,0.2-0.4,0.4-0.6,0.6c-0.2,0.2-0.4,0.3-0.7,0.5h0v0h0c-0.2,1.8-0.8,3.6-1.8,5
					c-0.9,1.5-2.2,2.7-3.7,3.7c0,0,0,0,0,0c-0.3,0.2-0.6,0.3-0.9,0.5c-0.6,0.3-1.3,0.6-2,0.8c-0.2,0.1-0.4,0.1-0.6,0.2
					c-0.1,0.1-0.3,0.1-0.4,0.1l-0.1,0c-0.4-0.4-0.9-0.7-1.5-0.9L51,42.4c3.8-0.4,6.9-2.7,8.5-6l-0.1,0c-0.3,0.3-0.5,0.6-0.8,0.9
					c-2,1.9-4.7,3.2-7.6,3.4v-0.1L50.7,37c3.2-0.2,5.9-2,7.5-4.5c-2.1,1.7-4.7,2.7-7.6,2.9l-0.2-4.7c2-0.1,3.8-1.1,5.1-2.5
					c0.6-0.6,1-1.4,1.3-2.2c-0.2,0.2-0.4,0.5-0.6,0.7c-0.4,0.4-0.9,0.8-1.4,1.1c-0.3,0.2-0.5,0.3-0.8,0.5c-1.1,0.5-2.3,0.9-3.7,0.9
					L50,20.3l-0.4,8.8l-0.5,0c-1.8-0.2-3.5-0.9-4.8-2c-0.4-0.4-0.9-0.8-1.2-1.2c1,2.6,3.5,4.5,6.5,4.7l-0.2,4.7v0h0
					c-2.1-0.1-4.1-0.7-5.9-1.8c-0.6-0.3-1.1-0.7-1.6-1.1c0,0,0,0,0,0c1.6,2.5,4.3,4.2,7.4,4.5l-0.1,3.5V40.6L49.1,40.6z"/>
				<path class="st0" d="M33.4,60.1c1.1,2.3,1,4.8-0.1,6.9C34.4,64.9,34.5,62.4,33.4,60.1L33.4,60.1z"/>
				<path class="st0" d="M43.3,46.7c-3.2-1.8-7.1-2.1-10.7-0.6v0c0,0,0,0,0,0C36.1,44.5,40.1,44.9,43.3,46.7L43.3,46.7z"/>
				<path class="st0" d="M33.2,67c-0.2,0.4-0.4,0.7-0.7,1C32.8,67.7,33,67.4,33.2,67z"/>
				<path class="st0" d="M31.6,7.3c0.9-0.4,1.7-0.7,2.6-1C33.3,6.6,32.4,7,31.6,7.3z"/>
				<path class="st0" d="M31.7,51.7c0.4,0.1,0.7,0.1,1.1,0.2C32.5,51.9,32.1,51.8,31.7,51.7z"/>
				<polygon class="st0" points="32,60.8 24.2,64.9 24.3,64.9 				"/>
				<path class="st0" d="M49,42.4L49,42.4c-4-0.4-7.4-3-8.8-6.6c0.1,0.2,0.3,0.3,0.4,0.5c0.1,0.2,0.3,0.3,0.4,0.5c0,0,0,0,0,0
					c0.1,0.1,0.3,0.3,0.4,0.4c0.1,0.1,0.3,0.3,0.5,0.4c1,0.8,2.1,1.6,3.3,2c0.6,0.3,1.2,0.5,1.8,0.6c0.7,0.2,1.3,0.3,2,0.3v0v-0.2
					l0.2-3.5v0h0c-3.1-0.3-5.8-2-7.4-4.5c0.5,0.4,1.1,0.8,1.6,1.1c1.8,1,3.7,1.6,5.9,1.8h0v0l0.2-4.7c-2.9-0.2-5.4-2.1-6.5-4.7
					c0.4,0.4,0.8,0.8,1.2,1.2c1.3,1.1,3,1.8,4.8,2l0.5,0l0.4-8.8l0.4,8.9v0c1.3-0.1,2.5-0.4,3.7-0.9c0.3-0.1,0.6-0.3,0.8-0.5
					c0.5-0.3,1-0.7,1.4-1.1c0.2-0.2,0.4-0.4,0.6-0.7c-0.3,0.8-0.8,1.6-1.3,2.2c-1.3,1.4-3.1,2.3-5.1,2.5v0l0.2,4.7
					c2.9-0.1,5.5-1.2,7.6-2.9c-1.6,2.5-4.4,4.3-7.5,4.5l0.2,3.6v0.1c3-0.2,5.6-1.5,7.6-3.4c0.3-0.3,0.6-0.6,0.8-0.9l0.1,0
					c-1.5,3.3-4.7,5.6-8.5,6l0.2,4.1v0h0c0.6,0.2,1.1,0.5,1.5,0.9l0,0l0.1,0c0.1,0,0.3-0.1,0.4-0.1c0.2,0,0.4-0.1,0.6-0.2
					c0.7-0.2,1.3-0.5,2-0.8c0.3-0.1,0.6-0.3,0.9-0.5l0.4,0.8c-0.3,0.2-0.6,0.3-0.9,0.5c0,0,0,0,0,0c-0.6,0.4-1.2,0.8-1.7,1.3
					c-0.3,0.2-0.5,0.5-0.8,0.8c0,0,0,0,0,0c0.1,0.5,0.1,1.1,0,1.7c0,0,0,0,0,0l3.4,2.2c0,0,0,0,0,0h0v0c0.1-0.2,0.2-0.3,0.4-0.5
					c0,0,0,0,0,0c0.1-0.2,0.3-0.3,0.4-0.5c0.1-0.2,0.3-0.3,0.4-0.5c2.3-2.3,5.6-3.3,8.8-2.9c0,0,0,0,0.1,0v0
					c-3.4,0.4-6.6,2.3-8.7,5.3l0,0l3,1.9v0c0,0,0,0,0,0c0.3-0.5,0.7-0.9,1.1-1.3c1.3-1.4,3-2.3,4.9-2.7c0.5-0.1,1.1-0.2,1.6-0.2
					c-0.3,0.1-0.6,0.2-0.9,0.4c-2.1,1-4,2.6-5.3,4.7c0,0,0,0,0,0l0,0l4,2.5c0,0,0,0,0,0c0.6-0.9,1.4-1.7,2.3-2.3
					c0.3-0.1,0.5-0.3,0.8-0.4s0.6-0.2,0.8-0.3c0.7-0.2,1.5-0.3,2.2-0.3c0.3,0,0.7,0,1,0.1c-0.3,0.1-0.6,0.1-0.9,0.2
					c-0.6,0.2-1.2,0.4-1.7,0.7c-0.6,0.3-1.1,0.6-1.6,1c-0.2,0.2-0.5,0.4-0.7,0.6c-0.2,0.2-0.4,0.5-0.6,0.7c-0.2,0.3-0.4,0.5-0.6,0.8
					v0l0,0l7.4,4.7l-7.9-4.1c-1.2,2.3-1.3,4.9-0.5,7.3c0,0,0,0,0,0c-1.7-2.2-2.1-5.3-0.8-7.9h0l-4.2-2.2h0c-0.4,0.7-0.7,1.5-0.9,2.2
					c-0.6,1.9-0.7,3.9-0.4,5.8c-1.4-2.7-1.5-5.9-0.1-8.8l-3.2-1.7h0l0,0c-1.5,3.1-1.6,6.5-0.5,9.5l-0.1,0c-2.1-3-2.5-6.9-1-10.3v0
					l-3.6-1.8l0,0h0c-0.4,0.4-1,0.7-1.6,0.8v0v0.1c-0.2,0.5-0.3,1.1-0.4,1.7c0,0.1,0,0.2,0,0.3c-0.1,0.6-0.1,1.1-0.1,1.7l-1,0
					c0-1.2-0.2-2.5-0.5-3.7v0c-0.5-0.1-1-0.4-1.5-0.8l0,0h0l-0.1,0.1l-3.5,1.8v0c1.5,3.1,1.2,6.6-0.3,9.5c-0.1,0.2-0.3,0.5-0.5,0.7
					c0,0,0,0,0,0c0,0.1-0.1,0.1-0.1,0.2c-0.1,0.2-0.3,0.4-0.4,0.5c0.1-0.2,0.2-0.5,0.3-0.7c0.1-0.1,0.1-0.3,0.1-0.4
					c0-0.1,0.1-0.2,0.1-0.3c0-0.1,0.1-0.2,0.1-0.3c0.5-2.1,0.5-4.3-0.1-6.5c-0.1-0.2-0.1-0.4-0.2-0.6c-0.1-0.4-0.3-0.9-0.5-1.3
					c0,0,0,0,0,0h0l0,0l-0.1,0L39,57.2v0h0c1.2,2.5,1.2,5.2,0.3,7.6c0,0,0,0,0,0c-0.1,0.2-0.1,0.4-0.2,0.5c0,0,0,0,0,0
					c-0.1,0.2-0.1,0.4-0.2,0.5c0.4-2.6,0-5.4-1.3-7.9l0,0l-0.2,0.1l-2.6,1.3l-1.4,0.7h0c1.1,2.3,1,4.8-0.1,6.9
					c-0.2,0.4-0.4,0.7-0.7,1c0.8-2.3,0.7-4.9-0.5-7.2h0v0l0,0h0l-7.8,4l7.4-4.7l0,0h0l0,0c-1.4-2.2-3.6-3.6-6-4c0.2,0,0.4,0,0.5-0.1
					c2.6-0.2,5.2,1,6.7,3.3l0,0l4-2.5l0,0c-1.5-2.4-3.8-4.2-6.3-5.1c0.4,0,0.7,0.1,1.1,0.1c0,0,0,0,0,0c0.4,0.1,0.7,0.1,1.1,0.2
					c2.2,0.6,4.1,2,5.5,3.9l3-1.9l0,0c-1.9-2.8-4.8-4.6-8-5.2l0-0.1c3.6-0.3,7.2,1.2,9.4,4.3v0h0l3.4-2.2l0,0c0-0.1,0-0.3-0.1-0.4
					c0,0,0,0,0,0c-0.1-0.5,0-0.9,0.1-1.4L46.2,49c-0.2-0.2-0.4-0.5-0.7-0.7c-0.5-0.4-0.9-0.8-1.5-1.2c-0.3-0.2-0.5-0.3-0.8-0.5
					L44,46l0,0c1,0.6,2.2,1.1,3.4,1.3c0.4-0.4,0.9-0.7,1.5-0.9L49,42.4z"/>
				<path class="st0" d="M30.6,51.6c0.4,0,0.7,0.1,1.1,0.1C31.4,51.7,31,51.6,30.6,51.6C30.6,51.6,30.6,51.6,30.6,51.6z"/>
				<path class="st0" d="M29.4,4.4c0.7-0.3,1.5-0.7,2.3-1C30.9,3.8,30.2,4.1,29.4,4.4z"/>
				<path class="st0" d="M27.8,9.2L27.8,9.2c-0.3,0.2-0.6,0.4-0.9,0.7C27.1,9.7,27.4,9.4,27.8,9.2z"/>
				<path class="st0" d="M32.9,59.3c-1.5-2.3-4.1-3.5-6.7-3.3C28.8,55.8,31.4,57,32.9,59.3L32.9,59.3z"/>
				<path class="st1" d="M49.4,57.3c0,1.4-0.3,2.7-0.7,4c-0.2,0.4-0.3,0.8-0.5,1.3l0,0c-0.2,0.4-0.4,0.8-0.7,1.2
					c-0.3,0.5-0.7,1-1.1,1.4c-0.1,0.1-0.1,0.1-0.2,0.2c-0.3,0.3-0.7,0.6-1,0.9c-0.2,0.2-0.4,0.3-0.6,0.4c0,0,0,0,0,0l0.1,0.1
					c0,0.1,0,0.3,0,0.4c0,0,0,0,0,0.1c0,0.3-0.1,0.5-0.1,0.8c-0.1,0.2-0.1,0.5-0.2,0.7c0,0.2-0.1,0.3-0.2,0.5
					c-0.1,0.3-0.2,0.5-0.4,0.7c-0.1,0.3-0.3,0.5-0.5,0.7c-0.2,0.2-0.4,0.4-0.6,0.6c-0.4,0.4-0.8,0.8-1.4,1.1c0,0,0,0,0,0
					c-1.8,1-3.9,1.1-5.6,0.4c-0.5,0.5-1,1-1.6,1.3c-3.1,1.8-7,0.7-8.8-2.4c-0.1-0.1-0.1-0.2-0.2-0.4c-2.6,0.5-5.4-0.6-6.9-3.1
					c-0.3-0.5-0.5-1.1-0.6-1.6c-0.6-2.1,0-4.4,1.5-6c0-0.1-0.1-0.1-0.1-0.2c0-0.1-0.1-0.1-0.1-0.2c-0.7-1.3-1-2.7-0.8-4.1
					c0.1-0.5,0.2-1.1,0.4-1.6c0.5-1.3,1.5-2.4,2.7-3.1c0.6-0.3,1.2-0.6,1.8-0.7c0,0,0,0,0,0v0c0.1-1,0.4-1.9,1-2.7
					c0.5-0.8,1.3-1.6,2.2-2.1c2-1.2,4.4-1.1,6.3-0.1l0,0.1v0c3.5-1.6,7.5-1.2,10.7,0.6l0,0c0.3,0.1,0.5,0.3,0.8,0.5
					c0.5,0.4,1,0.8,1.5,1.2c0.2,0.2,0.5,0.4,0.7,0.7l0.1,0.1c-0.1,0.4-0.2,0.9-0.1,1.4c0,0,0,0,0,0c0,0.1,0,0.3,0.1,0.4L42.8,53
					c-2.2-3.1-5.8-4.6-9.4-4.3l0,0.1c3.2,0.6,6.1,2.4,8,5.2l0,0l-3,1.9c-1.3-2-3.3-3.3-5.5-3.9c-0.4-0.1-0.7-0.2-1.1-0.2
					c0,0,0,0,0,0c-0.4-0.1-0.7-0.1-1.1-0.1c0,0,0,0,0,0c0,0,0,0-0.1,0c2.5,1,4.8,2.7,6.3,5.2l-4,2.5c-1.5-2.3-4.1-3.5-6.7-3.3
					c-0.2,0-0.4,0-0.5,0.1c0,0,0,0-0.1,0c2.4,0.4,4.7,1.8,6.1,4l0,0l-7.5,4.7h0l7.8-4.1h0l0,0c1.2,2.3,1.3,4.9,0.5,7.3c0,0,0,0,0,0
					c0.3-0.3,0.5-0.7,0.7-1c1.1-2.1,1.3-4.6,0.1-6.9l1.4-0.7l2.6-1.3l0.2-0.1l0,0c1.3,2.5,1.7,5.3,1.3,7.9c0.1-0.2,0.2-0.3,0.2-0.5
					c0,0,0,0,0,0c0.1-0.2,0.1-0.4,0.2-0.5l0,0c0.9-2.4,0.9-5.1-0.3-7.6l3.1-1.6l0.1,0l0,0c0,0,0,0,0,0l0,0c0.2,0.4,0.4,0.8,0.5,1.3
					c0.1,0.2,0.1,0.4,0.2,0.6c0.6,2.1,0.6,4.4,0.1,6.5c0,0.1-0.1,0.2-0.1,0.3c0,0.1-0.1,0.2-0.1,0.3c-0.1,0.1-0.1,0.3-0.1,0.4
					c-0.1,0.2-0.2,0.5-0.3,0.7h0c0.1-0.2,0.3-0.4,0.4-0.5c0-0.1,0.1-0.1,0.1-0.2c0,0,0,0,0,0c0.2-0.2,0.3-0.5,0.5-0.7
					c1.6-2.9,1.8-6.4,0.3-9.5l3.5-1.8l0.1,0h0c0.4,0.4,0.9,0.7,1.5,0.8C49.3,54.8,49.4,56.1,49.4,57.3L49.4,57.3L49.4,57.3
					L49.4,57.3z"/>
				<path class="st0" d="M24.1,7.2c0.7-0.4,1.4-0.8,2.1-1.2C25.4,6.4,24.7,6.8,24.1,7.2z"/>
				<path class="st0" d="M23.1,50.9L23.1,50.9C23,51,23,51,23.1,50.9c-0.6,0.2-1.3,0.4-1.8,0.8c-1.3,0.7-2.2,1.8-2.7,3.1
					c0.5-1.3,1.5-2.4,2.7-3.2C21.8,51.3,22.4,51.1,23.1,50.9z"/>
				<path class="st0" d="M20.1,9.9c1.3-1,2.6-1.9,4-2.7C22.7,8.1,21.4,9,20.1,9.9z"/>
				<polygon class="st0" points="19.2,23.9 19.2,23.9 19.2,23.9 				"/>
				<path class="st0" d="M49.1,91.6c0-0.5-0.1-1-0.3-1.5c-0.3-0.8-0.8-1.6-1.6-2.2c-1.1-0.8-2.5-1-3.7-0.7c-0.2,0-0.3,0.1-0.5,0.1
					c-0.3,0.1-0.6,0.3-0.9,0.5c0,0,0,0,0,0c-0.3,0.2-0.6,0.4-0.8,0.7c-0.1,0.1-0.2,0.3-0.4,0.4c-0.1,0.1-0.2,0.2-0.2,0.4
					c-5-1.2-9.9-3.4-14.3-6.6c-4.4-3.2-8-7.1-10.7-11.5c0,0,0.1-0.1,0.1-0.1c0.1-0.1,0.1-0.1,0.1-0.2c0.1-0.1,0.1-0.2,0.2-0.3
					c0.7-1.1,0.8-2.3,0.5-3.5l1-0.3c0.1,0.5,0.4,1.1,0.6,1.6c1.4,2.5,4.2,3.6,6.9,3.1c0.1,0.1,0.1,0.2,0.2,0.4
					c1.8,3.1,5.7,4.1,8.8,2.4c0.6-0.4,1.2-0.8,1.6-1.3c1.8,0.7,3.9,0.6,5.6-0.4c0,0,0,0,0,0c0.5-0.3,1-0.6,1.4-1.1
					c0.2-0.2,0.4-0.4,0.6-0.6c0.2-0.2,0.3-0.5,0.5-0.7c0.1-0.2,0.3-0.5,0.4-0.7c0.1-0.2,0.1-0.3,0.2-0.5c0.1-0.2,0.1-0.5,0.2-0.7
					c0.1-0.3,0.1-0.5,0.1-0.8c0,0,0,0,0-0.1c0-0.1,0-0.3,0-0.4l-0.1-0.1c0,0,0,0,0,0c0.2-0.1,0.4-0.3,0.6-0.4c0.4-0.3,0.7-0.6,1-0.9
					c0.1-0.1,0.1-0.1,0.2-0.2c0.4-0.4,0.8-0.9,1.1-1.4c0.3-0.4,0.5-0.8,0.7-1.2c0,0,0,0,0,0c0.2-0.4,0.4-0.8,0.5-1.3
					c0.5-1.3,0.7-2.6,0.7-4l1,0c0,1.4,0.2,2.8,0.7,4c0.1,0.2,0.1,0.4,0.2,0.6c0.6,1.5,1.6,2.9,2.8,4c0.4,0.3,0.7,0.6,1.1,0.9l0,0
					c0,1.6,0.7,3.2,1.9,4.4c0.4,0.4,0.8,0.8,1.3,1.1c1.8,1.1,4,1.1,5.8,0.3c0.4,0.5,0.9,0.9,1.5,1.2c0.2,0.1,0.5,0.3,0.8,0.4
					c0,0,0,0,0,0c2.4,1,5.2,0.4,7-1.4c0.4-0.4,0.8-0.9,1.1-1.4c0.1-0.1,0.1-0.2,0.2-0.4c0.2,0,0.4,0.1,0.6,0.1c0.1,0,0.1,0,0.1,0
					c1.9,0.2,3.8-0.4,5.2-1.8c0.2-0.2,0.4-0.4,0.6-0.6c0.2-0.2,0.4-0.5,0.5-0.7v0c0.1-0.1,0.1-0.2,0.2-0.4c0.2-0.4,0.4-0.8,0.5-1.2
					l1,0.3c0,0,0,0.1,0,0.1c-0.2,0.8-0.2,1.6,0.1,2.4c0.1,0.3,0.2,0.7,0.4,1c0.1,0.1,0.1,0.2,0.2,0.3c0.1,0.1,0.2,0.3,0.3,0.4
					c-2.7,4.4-6.3,8.4-10.7,11.6c-4.4,3.2-9.3,5.4-14.3,6.6c0-0.1-0.1-0.1-0.1-0.2c0-0.1-0.1-0.1-0.1-0.2c-1.5-2-4.3-2.5-6.3-1
					c-0.8,0.6-1.3,1.3-1.6,2.2c-0.2,0.5-0.3,1-0.3,1.5L49.1,91.6z"/>
				<path class="st0" d="M16.1,70.6c0.7-1.2,0.8-2.6,0.4-3.9c0.1,0.1,0.1,0.3,0.1,0.4C16.9,68.2,16.8,69.5,16.1,70.6z"/>
				<path class="st0" d="M18.2,11.4c-1.2,1-2.4,2.1-3.5,3.2C15.8,13.5,17,12.4,18.2,11.4z"/>
				<path class="st0" d="M15.8,71.1c0,0.1-0.1,0.1-0.1,0.1c0,0,0,0,0,0C15.7,71.2,15.7,71.1,15.8,71.1z"/>
				<path class="st0" d="M13,56c0,0.1,0.1,0.2,0.1,0.3C13,56.2,13,56.1,13,56z"/>
				<path class="st0" d="M12.6,55.4c0.1,0.2,0.2,0.4,0.3,0.6C12.8,55.8,12.8,55.6,12.6,55.4z"/>
				<path class="st0" d="M12,54.5c0.2,0.2,0.3,0.3,0.4,0.5C12.3,54.9,12.2,54.7,12,54.5z"/>
				<path class="st1" d="M4.3,58.7C4.3,58.6,4.3,58.6,4.3,58.7L4.3,58.7c-1-5.1-1.1-10.4-0.3-15.7c0.2-1.2,0.4-2.4,0.7-3.6
					c0,0,0,0,0,0c0.3-1.2,0.6-2.4,1-3.6c2.5-7.7,6.9-14.4,12.4-19.5h0c1.1-0.9,2.7-1.3,4.2-0.8c0.6,0.2,1.2,0.5,1.6,0.9
					c0.1,0.1,0.2,0.2,0.2,0.2c0.2,0.3,0.4,0.5,0.6,0.8c0,0,0,0,0,0c0.2,0.4,0.4,0.8,0.5,1.3c0.1,0.6,0.2,1.2,0.1,1.8
					c-0.1,0.2-0.1,0.4-0.2,0.7c-0.8,2.4-3.3,3.7-5.7,2.9c-0.1-0.1-0.3-0.1-0.4-0.2h0v0c-3.3,3.9-6,8.5-7.7,13.7
					c-1.7,5.2-2.3,10.5-1.9,15.7h0v0c0.2,0,0.3,0.1,0.5,0.1c0.7,0.2,1.3,0.6,1.8,1.1c0.2,0.2,0.3,0.4,0.4,0.5
					c0.1,0.1,0.1,0.2,0.2,0.3c0.1,0.2,0.2,0.4,0.3,0.6c0,0,0,0,0,0c0,0.1,0.1,0.2,0.1,0.3c0.3,0.9,0.3,1.8,0,2.8
					c-0.8,2.4-3.3,3.7-5.7,2.9c-0.2-0.1-0.4-0.1-0.6-0.2c-1.1-0.5-1.9-1.5-2.3-2.6C4.4,59,4.4,58.8,4.3,58.7z"/>
				<path class="st0" d="M19.2,23.9c-3.3,3.9-6,8.5-7.6,13.7c-1.7,5.2-2.3,10.5-1.9,15.7h0c-0.4-5.1,0.2-10.5,1.9-15.7
					C13.2,32.4,15.9,27.8,19.2,23.9z"/>
				<path class="st0" d="M13.1,59.1c-0.8,2.4-3.3,3.7-5.7,2.9l0,0C9.7,62.8,12.3,61.5,13.1,59.1c0.3-1,0.3-1.9,0-2.8
					C13.4,57.2,13.4,58.2,13.1,59.1z"/>
				<path class="st0" d="M6.8,61.8C7,61.9,7.2,61.9,7.3,62C7.1,62,7,61.9,6.8,61.8z"/>
				<path class="st0" d="M5.8,35.7c-0.4,1.2-0.7,2.4-1,3.6c0,0,0,0,0,0c-0.3,1.2-0.5,2.4-0.7,3.6c-0.8,5.3-0.7,10.6,0.2,15.7l0,0
					c0,0,0,0,0,0c0,0.2,0.1,0.4,0.2,0.6c0.4,1.1,1.2,2,2.3,2.6C7,61.9,7.1,62,7.3,62l0,0c2.4,0.8,4.9-0.5,5.7-2.9
					c0.3-1,0.3-1.9,0-2.8c0-0.1-0.1-0.2-0.1-0.3c0,0,0,0,0,0c-0.1-0.2-0.2-0.4-0.3-0.6c-0.1-0.1-0.1-0.2-0.2-0.3
					c-0.1-0.2-0.3-0.4-0.4-0.5c-0.5-0.5-1.1-0.9-1.8-1.1l0,0c-0.1-0.1-0.3-0.1-0.5-0.1c-0.4-5.1,0.2-10.5,1.9-15.7
					c1.7-5.2,4.3-9.8,7.6-13.7l0,0c0.1,0.1,0.3,0.1,0.4,0.2c2.4,0.8,4.9-0.5,5.7-2.9c0.1-0.2,0.1-0.5,0.2-0.7
					c0.1-0.6,0.1-1.2-0.1-1.8c-0.1-0.5-0.3-0.9-0.5-1.3c0,0,0,0,0,0c-0.2-0.3-0.4-0.6-0.6-0.8c-0.1-0.1-0.1-0.2-0.2-0.2
					c-0.4-0.4-1-0.7-1.6-0.9c-1.5-0.5-3.1-0.1-4.2,0.8h0l0,0C12.6,21.4,8.3,28,5.8,35.7z M50,0c6.5,0,12.7,1.2,18.3,3.5
					c0.8,0.3,1.5,0.6,2.3,1c1.1,0.5,2.2,1,3.2,1.6c0.7,0.4,1.4,0.8,2.1,1.2c1.4,0.8,2.7,1.7,4,2.7c0.6,0.5,1.3,1,1.9,1.5
					c1.2,1,2.4,2.1,3.5,3.2c0.3,0.3,0.6,0.6,0.8,0.8c0.8,0.9,1.6,1.8,2.4,2.7c0.3,0.3,0.5,0.6,0.8,0.9C96,27.6,100,38.3,100,50
					c0,13.8-5.6,26.3-14.7,35.3c-9,9-21.5,14.6-35.3,14.6c-9.1,0-17.6-2.4-24.9-6.6c-0.7-0.4-1.4-0.8-2.1-1.3
					c-0.7-0.4-1.3-0.9-2-1.3c-1.3-0.9-2.6-1.9-3.8-3C6.7,78.6,0,65.1,0,50c0-13.8,5.6-26.3,14.6-35.4c1.1-1.1,2.3-2.2,3.5-3.2
					c0.6-0.5,1.3-1,1.9-1.5c1.3-1,2.6-1.9,4-2.7c0.7-0.4,1.4-0.8,2.1-1.2c1.1-0.6,2.1-1.1,3.2-1.6c0.7-0.3,1.5-0.7,2.3-1
					C37.3,1.2,43.5,0,50,0z M48.2,94.3c0.1-0.1,0.1-0.2,0.2-0.3c0.2-0.3,0.4-0.6,0.4-1c0.1-0.4,0.2-0.9,0.2-1.4l1.9,0
					c0,0.5,0.1,0.9,0.2,1.3c0.1,0.5,0.4,0.9,0.6,1.3c0.9,1.2,2.3,1.9,3.7,1.9l0.2,0c3.3-0.4,6.6-1.2,9.8-2.3
					c0.9-0.3,1.8-0.7,2.7-1.1c0.9-0.4,1.8-0.8,2.7-1.2c0.4-0.2,0.9-0.5,1.3-0.7c1.7-0.9,3.4-2,5.1-3.2c1.2-0.9,2.4-1.8,3.5-2.8
					c0.7-0.6,1.5-1.3,2.1-2c2.1-2.1,3.9-4.3,5.5-6.7c0.8-1.2,1.6-2.4,2.2-3.6c0.5-0.8,0.9-1.7,1.3-2.5l0,0c0.6-1.3,0.5-2.9-0.3-4.2
					c-0.1-0.1-0.1-0.2-0.2-0.4c-0.1-0.1-0.2-0.3-0.3-0.4c-0.9-1-2.1-1.5-3.3-1.5l1.2-2h0c0.7,0.5,1.6,0.7,2.5,0.6
					c0.2,0,0.4,0,0.5-0.1c0.2,0,0.5-0.1,0.7-0.2c0.2-0.1,0.4-0.1,0.6-0.2c0.4-0.2,0.7-0.4,0.9-0.6c0,0,0,0,0,0
					c0.7-0.6,1.2-1.4,1.5-2.3h0c1.4-7.5,1.1-15.4-1.5-23.1l0,0c-0.5-1.6-1.1-3.1-1.8-4.6c-0.3-0.8-0.7-1.5-1.1-2.2
					c-2.4-4.8-5.6-9-9.4-12.5l0,0c-0.2-0.2-0.4-0.4-0.7-0.5c-0.2-0.1-0.5-0.3-0.8-0.4c-0.1-0.1-0.2-0.1-0.4-0.1
					c-0.8-0.3-1.8-0.3-2.7,0c-0.4,0.1-0.7,0.3-1,0.5c-0.1,0.1-0.2,0.1-0.3,0.2c-0.1,0.1-0.2,0.1-0.3,0.2L73.4,16
					c0.3-0.3,0.5-0.7,0.7-1.1c0.2-0.5,0.4-1.1,0.4-1.8c0-1.2-0.5-2.3-1.2-3.1c-0.2-0.3-0.5-0.5-0.8-0.7h0l0,0
					c-1.2-0.7-2.5-1.3-3.8-1.9c-0.4-0.2-0.9-0.4-1.3-0.6c-1.3-0.5-2.7-1-4.1-1.4c-0.5-0.1-0.9-0.3-1.4-0.4c-0.9-0.2-1.9-0.5-2.9-0.6
					C56,3.8,53,3.5,50,3.5c-1,0-2.1,0-3.1,0.1c-4.4,0.3-8.7,1.2-12.7,2.7c-0.9,0.3-1.8,0.7-2.6,1c-0.9,0.4-1.7,0.8-2.6,1.2
					c-0.4,0.2-0.8,0.4-1.2,0.7l0,0c-0.4,0.2-0.7,0.4-0.9,0.7c-0.8,0.8-1.3,2-1.3,3.2c0,0.9,0.3,1.8,0.8,2.5c0.2,0.4,0.5,0.7,0.9,0.9
					c0.8,0.7,1.8,1.1,2.9,1.1c0.6,0,1.2-0.1,1.8-0.4c1.6-0.7,2.8-2.3,2.8-4.2c0-0.2,0-0.3,0-0.5c4.7-2,9.9-3,15.3-3.1l0.1,3.8
					c-1.8,0-3.4,0.7-4.6,1.9c-0.6,0.6-1,1.3-1.3,2c-0.1,0.2-0.1,0.3-0.2,0.5c-0.1,0-0.3,0-0.4,0c-1.1,0-2.2,0.3-3.1,0.8
					c-1.1,0.6-2,1.5-2.6,2.6c-0.5,0.9-0.8,2-0.8,3.1c0,0.7,0.1,1.4,0.4,2.1c-0.2,0.1-0.3,0.3-0.5,0.4c-1.2,1.2-2,2.8-2,4.6
					c0,2.4,1.3,4.5,3.2,5.6l0.1,0c0.4,3.8,2.7,7.1,5.9,9l-0.7,0.7l0,0c-3.2-1.8-7.1-2.1-10.7-0.6c0,0,0,0,0,0l0-0.1
					c-1.9-1.1-4.3-1.1-6.3,0.1c-0.9,0.5-1.7,1.3-2.2,2.1c-0.5,0.8-0.8,1.8-1,2.7c-0.6,0.1-1.3,0.4-1.8,0.7c-1.3,0.8-2.2,1.9-2.7,3.2
					c-0.2,0.5-0.4,1.1-0.4,1.6c-0.2,1.4,0.1,2.8,0.8,4.1c0,0,0.1,0.1,0.1,0.1c0,0.1,0.1,0.1,0.1,0.2c-1.5,1.6-2,3.9-1.5,6l-1,0.3
					c0-0.1-0.1-0.3-0.1-0.4c-0.2-0.5-0.4-1-0.8-1.4c-0.1-0.1-0.2-0.3-0.4-0.4c-0.1-0.1-0.3-0.2-0.4-0.4l0,0c-1.1-0.8-2.5-1-3.7-0.7
					c-0.8,0.2-1.6,0.6-2.3,1.3c-0.1,0.1-0.2,0.3-0.4,0.4c-0.9,1.3-1.1,2.9-0.6,4.3l0,0c3.2,6.9,8.2,13.1,14.8,17.8
					c1.2,0.9,2.5,1.7,3.7,2.5c0.9,0.5,1.7,1,2.6,1.4c4.8,2.4,9.9,3.9,15,4.6v0C45.7,96.3,47.3,95.7,48.2,94.3z"/>
			</g>
			<g>
				<path class="st2" d="M89.3,19.1C96,27.6,100,38.3,100,50c0,13.8-5.6,26.3-14.7,35.3C76.3,94.4,63.8,100,50,100
					c-9.1,0-17.6-2.4-24.9-6.6c-0.7-0.4-1.4-0.8-2.1-1.3c-0.7-0.4-1.3-0.9-2-1.3c-1.3-0.9-2.6-1.9-3.8-3C6.7,78.6,0,65.1,0,50
					c0-13.8,5.6-26.3,14.6-35.4c1.1-1.1,2.3-2.2,3.5-3.2c0.6-0.5,1.3-1,1.9-1.5c1.3-1,2.6-1.9,4-2.7c0.7-0.4,1.4-0.8,2.1-1.2
					c1.1-0.6,2.1-1.1,3.2-1.6c0.7-0.3,1.5-0.7,2.3-1C37.3,1.2,43.5,0,50,0s12.7,1.2,18.3,3.5c0.8,0.3,1.5,0.6,2.3,1
					c1.1,0.5,2.2,1,3.2,1.6c0.7,0.4,1.4,0.8,2.1,1.2c1.4,0.8,2.7,1.7,4,2.7c0.6,0.5,1.3,1,1.9,1.5c1.2,1,2.4,2.1,3.5,3.2
					c0.3,0.3,0.6,0.6,0.8,0.8c0.8,0.9,1.6,1.8,2.4,2.7C88.8,18.5,89.1,18.8,89.3,19.1z"/>
				<path class="st2" d="M27.6,9.3c0,0,0.1,0,0.1-0.1C28.1,9,28.6,8.7,29,8.5c0.8-0.4,1.7-0.8,2.6-1.2c0.9-0.4,1.7-0.7,2.6-1
					c4-1.5,8.3-2.4,12.7-2.7c1-0.1,2-0.1,3.1-0.1c3,0,6,0.3,8.9,0.9c1,0.2,1.9,0.4,2.9,0.6c0.5,0.1,0.9,0.3,1.4,0.4
					c1.4,0.4,2.7,0.9,4.1,1.4c0.4,0.2,0.9,0.4,1.3,0.6c1.3,0.6,2.6,1.2,3.8,1.9"/>
				<path class="st2" d="M34.5,12.7C34.5,12.7,34.5,12.7,34.5,12.7L34.5,12.7c4.8-2,10-3.1,15.5-3.1c4.8,0,9.4,0.8,13.6,2.4
					c0.6,0.2,1.2,0.4,1.8,0.7c0,0,0,0,0,0c0,0,0,0,0,0"/>
				<path class="st2" d="M34.5,12.6C34.5,12.6,34.5,12.7,34.5,12.6l0,0.1c0,0.2,0,0.3,0,0.5c0,1.9-1.1,3.5-2.8,4.2
					c-0.5,0.2-1.1,0.4-1.8,0.4c-1.1,0-2.1-0.4-2.9-1c-0.3-0.3-0.6-0.6-0.9-0.9c-0.5-0.7-0.8-1.6-0.8-2.5c0-1.3,0.5-2.4,1.3-3.2
					c0.3-0.3,0.6-0.5,0.9-0.7"/>
				<path class="st2" d="M72.4,9.3c0.3,0.2,0.6,0.4,0.8,0.7c0.8,0.8,1.2,1.9,1.2,3.1c0,0.6-0.1,1.2-0.4,1.8
					c-0.2,0.4-0.4,0.8-0.7,1.1c-0.1,0.1-0.2,0.2-0.3,0.3c-0.1,0.1-0.2,0.2-0.3,0.3c-0.4,0.4-1,0.7-1.6,0.8c-0.4,0.1-0.9,0.2-1.3,0.2
					s-0.9-0.1-1.4-0.2c-0.7-0.2-1.3-0.6-1.8-1.1c-0.2-0.2-0.4-0.4-0.6-0.7c-0.2-0.2-0.3-0.5-0.4-0.8c-0.2-0.5-0.4-1.1-0.4-1.8
					c0-0.1,0-0.3,0-0.4"/>
				<path class="st2" d="M4.3,58.8c0,0,0-0.1,0-0.1c-1-5.1-1.1-10.4-0.2-15.7c0.2-1.2,0.4-2.4,0.7-3.6c0,0,0,0,0,0
					c0.3-1.2,0.6-2.4,1-3.6c2.5-7.7,6.9-14.4,12.4-19.5"/>
				<path class="st2" d="M9.7,53.3L9.7,53.3L9.7,53.3c-0.4-5.2,0.2-10.5,1.9-15.7c1.7-5.2,4.3-9.8,7.6-13.7l0,0c0,0,0,0,0,0"/>
				<path class="st2" d="M9.6,53.3C9.6,53.3,9.7,53.3,9.6,53.3c0.3,0.1,0.4,0.1,0.6,0.1c0.7,0.2,1.3,0.6,1.8,1.1
					c0.2,0.2,0.3,0.3,0.4,0.5c0.1,0.1,0.1,0.2,0.2,0.3c0.1,0.2,0.2,0.4,0.3,0.6c0,0,0,0,0,0c0,0.1,0.1,0.2,0.1,0.3
					c0.3,0.9,0.3,1.8,0,2.8c-0.8,2.4-3.3,3.7-5.7,2.9l0,0C7.1,62,7,61.9,6.8,61.8c-1.1-0.5-1.9-1.5-2.3-2.6
					c-0.1-0.2-0.1-0.4-0.2-0.6v0"/>
				<path class="st2" d="M18.2,16.2c1.1-0.9,2.7-1.3,4.2-0.8c0.6,0.2,1.1,0.5,1.6,0.9c0.1,0.1,0.2,0.2,0.2,0.2
					c0.2,0.3,0.4,0.5,0.6,0.8c0,0,0,0,0,0c0.2,0.4,0.4,0.8,0.5,1.3c0.1,0.6,0.2,1.2,0.1,1.8c0,0.2-0.1,0.5-0.2,0.7
					c-0.8,2.4-3.3,3.7-5.7,2.9c-0.1,0-0.3-0.1-0.4-0.2"/>
				<path class="st2" d="M44.2,96.2c0,0-0.1,0-0.1,0c-5.1-0.7-10.2-2.2-15-4.6c-0.9-0.4-1.7-0.9-2.6-1.4c-1.3-0.7-2.5-1.6-3.7-2.5
					c-6.6-4.8-11.5-11-14.8-17.8"/>
				<path class="st2" d="M15.6,71.2C15.6,71.2,15.6,71.2,15.6,71.2"/>
				<path class="st2" d="M40.7,89.4L40.7,89.4c-5-1.2-9.9-3.4-14.3-6.6c-4.4-3.2-8-7.1-10.7-11.5"/>
				<path class="st2" d="M40.6,89.4C40.6,89.4,40.6,89.4,40.6,89.4c0.1-0.1,0.1-0.1,0.1-0.1c0.1-0.1,0.1-0.3,0.2-0.4
					c0.1-0.1,0.2-0.3,0.4-0.4c0.3-0.3,0.5-0.5,0.8-0.7c0,0,0,0,0,0c0.3-0.2,0.6-0.3,0.9-0.5c0.2-0.1,0.3-0.1,0.5-0.1
					c1.2-0.3,2.6-0.1,3.7,0.8c0.8,0.6,1.3,1.3,1.6,2.1c0.2,0.5,0.3,1,0.3,1.5c0,0.5-0.1,0.9-0.2,1.4c-0.1,0.3-0.2,0.7-0.4,1
					c-0.1,0.1-0.1,0.2-0.2,0.3c-1,1.4-2.6,2-4.2,1.8"/>
				<path class="st2" d="M8,69.8c-0.5-1.4-0.4-3,0.6-4.3c0.1-0.1,0.2-0.3,0.4-0.4c0.6-0.7,1.4-1.1,2.3-1.3c1.2-0.3,2.6-0.1,3.7,0.7
					h0c0.1,0.1,0.3,0.2,0.4,0.4c0.1,0.1,0.2,0.3,0.4,0.4c0.3,0.4,0.6,0.9,0.8,1.4c0.1,0.1,0.1,0.3,0.1,0.4c0.3,1.1,0.1,2.4-0.5,3.5
					c-0.1,0.1-0.1,0.2-0.2,0.3c0,0.1-0.1,0.1-0.1,0.2c0,0.1-0.1,0.1-0.1,0.1c0,0,0,0,0,0v0"/>
				<path class="st2" d="M81.9,16.2C81.9,16.2,82,16.3,81.9,16.2c3.9,3.6,7.1,7.9,9.5,12.6c0.4,0.7,0.7,1.5,1.1,2.2
					c0.7,1.5,1.3,3,1.8,4.6c2.5,7.7,2.9,15.6,1.5,23.1"/>
				<path class="st2" d="M80.8,23.8L80.8,23.8L80.8,23.8c0.4,0.5,0.8,1,1.2,1.5c2.8,3.6,5,7.7,6.5,12.3c1.7,5.2,2.3,10.5,1.9,15.6
					c0,0,0,0,0,0c0,0,0,0,0,0"/>
				<path class="st2" d="M80.9,23.8C80.8,23.8,80.8,23.8,80.9,23.8c-0.2,0.1-0.4,0.2-0.5,0.2c-1.7,0.5-3.4,0.1-4.6-1.1
					c-0.5-0.5-0.9-1.1-1.1-1.8c-0.5-1.6-0.1-3.2,0.8-4.3c0.1-0.1,0.1-0.2,0.2-0.3c0.1-0.1,0.1-0.2,0.2-0.2c0,0,0,0,0,0
					c0.1-0.1,0.2-0.1,0.3-0.2c0.1-0.1,0.2-0.1,0.3-0.2c0.3-0.2,0.6-0.4,1-0.5c0.9-0.3,1.8-0.3,2.7,0c0.1,0,0.3,0.1,0.4,0.1
					c0.3,0.1,0.5,0.2,0.8,0.4c0.2,0.1,0.5,0.3,0.7,0.5"/>
				<path class="st2" d="M95.7,58.8c-0.2,0.9-0.7,1.7-1.5,2.3c0,0,0,0,0,0c-0.3,0.2-0.6,0.4-0.9,0.6c-0.2,0.1-0.4,0.1-0.6,0.2
					c-0.2,0.1-0.5,0.1-0.7,0.2c-0.2,0-0.4,0.1-0.5,0.1c-0.9,0-1.8-0.2-2.5-0.6h0c-0.3-0.2-0.6-0.4-0.8-0.6c-0.2-0.1-0.3-0.3-0.5-0.5
					c-0.1-0.1-0.1-0.2-0.2-0.3c-0.2-0.3-0.4-0.6-0.5-1c-0.6-1.7-0.1-3.4,1.1-4.6c0.5-0.5,1.1-0.9,1.8-1.1c0.1,0,0.3-0.1,0.4-0.1"/>
				<path class="st2" d="M92,69.8c0,0,0,0.1-0.1,0.1v0c-0.4,0.8-0.8,1.7-1.3,2.5c-0.7,1.2-1.4,2.4-2.2,3.6c-1.6,2.4-3.5,4.6-5.5,6.7
					c-0.7,0.7-1.4,1.4-2.1,2c-1.1,1-2.3,1.9-3.5,2.8c-1.6,1.2-3.3,2.3-5.1,3.2c-0.4,0.2-0.9,0.5-1.3,0.7c-0.9,0.4-1.8,0.8-2.7,1.2
					c-0.9,0.4-1.8,0.7-2.7,1.1c-3.2,1.1-6.5,1.9-9.8,2.3"/>
				<path class="st2" d="M84.4,71.1L84.4,71.1c-2.7,4.4-6.3,8.4-10.7,11.6c-4.4,3.2-9.3,5.4-14.3,6.6c0,0,0,0,0,0"/>
				<path class="st2" d="M84.5,71.2C84.4,71.2,84.4,71.1,84.5,71.2L84.5,71.2c-0.2-0.2-0.3-0.3-0.4-0.4c-0.1-0.1-0.1-0.2-0.2-0.3
					c-0.2-0.3-0.3-0.6-0.4-1c-0.3-0.8-0.3-1.6-0.1-2.4c0,0,0-0.1,0-0.1c0-0.1,0.1-0.2,0.1-0.4c0.3-0.8,0.8-1.6,1.6-2.2
					c0.8-0.6,1.7-0.9,2.7-0.9c1.2,0,2.5,0.5,3.3,1.5c0.1,0.1,0.2,0.3,0.3,0.4c0.1,0.1,0.2,0.2,0.2,0.4c0.8,1.3,0.8,2.8,0.2,4.2"/>
				<path class="st2" d="M55.7,96.1c-0.1,0-0.1,0-0.2,0c-1.4,0-2.8-0.6-3.7-1.9c-0.3-0.4-0.5-0.8-0.6-1.3C51,92.5,51,92,51,91.6
					c0-0.5,0.1-1,0.3-1.5c0.3-0.8,0.8-1.6,1.6-2.2c2-1.5,4.9-1,6.3,1c0.1,0.1,0.1,0.1,0.1,0.2c0.1,0.1,0.1,0.1,0.1,0.2"/>
				<path class="st2" d="M51.1,46.4C51.1,46.4,51.1,46.4,51.1,46.4L51.1,46.4c0.6,0.2,1.1,0.5,1.6,0.9"/>
				<path class="st2" d="M47.3,47.4C47.3,47.3,47.4,47.3,47.3,47.4c0.5-0.5,1-0.8,1.5-0.9c0,0,0.1,0,0.1,0"/>
				<path class="st2" d="M43.8,17.8C43.8,17.8,43.8,17.8,43.8,17.8c0.1-0.2,0.1-0.3,0.2-0.5c0.3-0.7,0.8-1.4,1.3-2
					c1.2-1.2,2.8-1.9,4.6-1.9c2.9,0,5.3,1.9,6.2,4.5v0"/>
				<path class="st2" d="M43.8,17.8C43.8,17.8,43.8,17.8,43.8,17.8"/>
				<path class="st2" d="M56,17.9C56.1,17.9,56.1,17.9,56,17.9c0.2,0,0.3,0,0.5,0c3.6,0,6.4,2.9,6.4,6.4c0,0.7-0.1,1.3-0.3,1.9
					c0,0,0,0,0,0"/>
				<path class="st2" d="M37.3,26.3c-0.2-0.7-0.4-1.4-0.4-2.1c0-1.1,0.3-2.2,0.8-3.1c0.6-1.1,1.5-2,2.6-2.6c0.9-0.5,2-0.8,3.1-0.8
					c0.1,0,0.3,0,0.4,0h0h0"/>
				<path class="st2" d="M62.6,26.2C62.6,26.2,62.6,26.2,62.6,26.2L62.6,26.2L62.6,26.2c1.7,1.2,2.7,3.1,2.7,5.2
					c0,1.5-0.5,2.8-1.3,3.9c0,0,0,0,0,0c-0.1,0.2-0.3,0.4-0.5,0.6c-0.2,0.2-0.4,0.4-0.6,0.6c-0.2,0.1-0.4,0.3-0.6,0.4"/>
				<path class="st2" d="M38.1,37c-1.9-1.1-3.2-3.2-3.2-5.6c0-1.8,0.7-3.4,1.9-4.6c0.2-0.1,0.3-0.3,0.5-0.4c0,0,0,0,0,0v0h0
					c0,0,0,0,0.1,0"/>
				<polyline class="st2" points="51,42.3 51,42.4 51.2,46.4 51.2,46.4 				"/>
				<polyline class="st2" points="50.7,36.9 50.7,37 50.9,40.6 				"/>
				<polyline class="st2" points="50.5,30.6 50.5,30.6 50.7,35.3 50.7,35.4 				"/>
				<polyline class="st2" points="50,20.2 50,20.3 50.4,29.1 				"/>
				<polyline class="st2" points="49,42.3 49,42.4 49,42.4 48.8,46.4 48.8,46.4 48.8,46.5 				"/>
				<polyline class="st2" points="49.3,36.9 49.3,36.9 49.3,37 49.1,40.4 49.1,40.6 				"/>
				<polyline class="st2" points="49.5,30.5 49.5,30.6 49.3,35.3 				"/>
				<polyline class="st2" points="50,20.3 49.6,29.1 49.6,29.1 				"/>
				<path class="st2" d="M43.1,25.9C43.1,25.9,43,25.8,43.1,25.9"/>
				<path class="st2" d="M49.5,30.6c-2.9-0.2-5.4-2.1-6.5-4.7"/>
				<path class="st2" d="M56.9,25.9c-0.3,0.8-0.8,1.6-1.3,2.2c-1.3,1.4-3.1,2.3-5.1,2.5c0,0,0,0-0.1,0"/>
				<path class="st2" d="M49.6,29.1c-0.2,0-0.3,0-0.5,0c-1.8-0.2-3.5-0.9-4.8-2c-0.4-0.4-0.9-0.8-1.2-1.2c0,0,0,0,0,0c0,0,0,0,0,0"
					/>
				<path class="st2" d="M57,25.8c0,0-0.1,0.1-0.1,0.1c0,0,0,0,0,0c0,0,0,0,0,0c-0.2,0.2-0.4,0.5-0.6,0.7c-0.4,0.4-0.9,0.8-1.4,1.1
					c-0.3,0.2-0.5,0.3-0.8,0.5c-1.1,0.5-2.3,0.9-3.7,0.9c0,0,0,0,0,0"/>
				<path class="st2" d="M41.8,32.4C41.8,32.4,41.8,32.4,41.8,32.4"/>
				<path class="st2" d="M49.3,37L49.3,37c-3.1-0.3-5.8-2-7.4-4.5"/>
				<path class="st2" d="M58.3,32.4C58.3,32.4,58.3,32.4,58.3,32.4c-1.6,2.6-4.4,4.3-7.6,4.6c0,0,0,0,0,0"/>
				<path class="st2" d="M49.3,35.3c-2.1-0.1-4.1-0.7-5.9-1.8c-0.6-0.3-1.1-0.7-1.6-1.1c0,0,0,0,0,0h0c0,0,0,0,0,0"/>
				<path class="st2" d="M58.3,32.4C58.3,32.4,58.3,32.5,58.3,32.4c-2.1,1.7-4.8,2.8-7.7,2.9c0,0,0,0,0,0"/>
				<path class="st2" d="M49.1,42.4C49.1,42.4,49,42.4,49.1,42.4c-4.1-0.4-7.5-3-8.9-6.6l0,0c0-0.1-0.1-0.2-0.1-0.3"/>
				<path class="st2" d="M59.6,35.9c-0.1,0.1-0.1,0.3-0.2,0.4c-1.5,3.3-4.7,5.6-8.5,6c0,0,0,0,0,0"/>
				<path class="st2" d="M49.2,40.6C49.1,40.6,49.1,40.6,49.2,40.6c-0.8-0.1-1.4-0.2-2.1-0.3c-0.6-0.1-1.3-0.4-1.8-0.6
					c-1.2-0.5-2.3-1.2-3.3-2c-0.2-0.1-0.3-0.3-0.5-0.4c-0.1-0.1-0.3-0.3-0.4-0.4c0,0,0,0,0,0c-0.1-0.1-0.3-0.3-0.4-0.5
					c-0.1-0.2-0.3-0.3-0.4-0.5"/>
				<path class="st2" d="M59.3,36.3c-0.3,0.3-0.5,0.6-0.8,0.9c-2,1.9-4.7,3.2-7.6,3.4h0c0,0-0.1,0-0.1,0"/>
				<path class="st2" d="M47.5,47.3c0,0-0.1,0-0.1,0C46.2,47,45,46.5,44,45.9c-3.2-1.9-5.4-5.1-5.9-9c0,0,0,0,0,0"/>
				<path class="st2" d="M52.7,47.3c0.1,0,0.3-0.1,0.4-0.1c0.2-0.1,0.4-0.1,0.6-0.2c0.7-0.2,1.3-0.5,2-0.8c0.3-0.2,0.6-0.3,0.9-0.5
					c0,0,0,0,0,0c1.5-0.9,2.7-2.2,3.7-3.7c1-1.5,1.6-3.2,1.8-5v0c0,0,0,0,0,0c0,0,0,0,0,0"/>
				<path class="st2" d="M46.3,50.9C46.3,50.9,46.2,50.8,46.3,50.9c0-0.2-0.1-0.3-0.1-0.4c0,0,0,0,0,0c-0.1-0.5,0-0.9,0.1-1.4"/>
				<path class="st2" d="M47.4,52.8L47.4,52.8C47.4,52.8,47.4,52.8,47.4,52.8"/>
				<path class="st2" d="M49,53.7c0,0-0.1,0-0.1,0c-0.5-0.1-1-0.4-1.5-0.8"/>
				<path class="st2" d="M25.1,71.5C25.1,71.5,25.1,71.5,25.1,71.5c-2.7,0.5-5.5-0.6-6.9-3.1c-0.3-0.5-0.5-1.1-0.6-1.6
					c-0.6-2.1,0-4.4,1.5-6"/>
				<path class="st2" d="M19.1,60.8C19.1,60.8,19.1,60.8,19.1,60.8C19,60.7,19,60.7,19,60.6c0-0.1-0.1-0.1-0.1-0.2
					c-0.7-1.3-1-2.7-0.8-4.1c0.1-0.5,0.2-1.1,0.4-1.6c0.5-1.3,1.5-2.4,2.7-3.2c0.6-0.3,1.2-0.6,1.8-0.7c0,0,0,0,0,0"/>
				<path class="st2" d="M35.7,72.9c-0.5,0.5-1,1-1.6,1.3c-3.1,1.8-7,0.7-8.8-2.4c-0.1-0.1-0.1-0.2-0.2-0.4c0,0,0,0,0,0"/>
				<path class="st2" d="M23,51c0,0,0-0.1,0-0.1v0c0.1-1,0.4-1.9,1-2.7c0.5-0.8,1.3-1.6,2.2-2.1c2-1.2,4.4-1.1,6.3-0.1"/>
				<path class="st2" d="M44.6,66.9c0,0.1,0,0.3,0,0.4c0,0,0,0,0,0.1c0,0.3-0.1,0.5-0.1,0.8c0,0.2-0.1,0.5-0.2,0.7
					c0,0.2-0.1,0.3-0.2,0.5c-0.1,0.3-0.2,0.5-0.4,0.7c-0.1,0.3-0.3,0.5-0.5,0.7c-0.2,0.2-0.4,0.4-0.6,0.6c-0.4,0.4-0.8,0.8-1.4,1.1
					c0,0,0,0,0,0c-1.8,1-3.8,1.1-5.6,0.4c0,0,0,0-0.1,0"/>
				<line class="st2" x1="42.8" y1="53" x2="46.2" y2="50.8"/>
				<line class="st2" x1="42.8" y1="53" x2="42.8" y2="53"/>
				<polyline class="st2" points="38.3,55.9 38.3,55.9 41.3,54 				"/>
				<polyline class="st2" points="32.9,59.3 32.9,59.3 36.9,56.8 36.9,56.8 				"/>
				<polyline class="st2" points="24.1,64.9 24.2,64.9 24.2,64.9 31.6,60.2 31.7,60.1 				"/>
				<polyline class="st2" points="43.8,54.7 43.8,54.7 47.3,52.9 47.4,52.8 47.4,52.8 47.5,52.8 				"/>
				<polyline class="st2" points="39,57.2 39,57.2 39,57.2 42.1,55.6 42.2,55.5 				"/>
				<polyline class="st2" points="33.3,60.2 33.3,60.1 33.4,60.1 34.8,59.4 37.4,58.1 37.5,58 				"/>
				<polyline class="st2" points="24.2,64.9 24.2,64.9 24.3,64.9 32,60.8 				"/>
				<path class="st2" d="M33.3,60.1c1.1,2.3,1,4.8-0.1,6.9c-0.2,0.4-0.4,0.7-0.7,1c0,0,0,0,0,0c0,0,0,0-0.1,0.1"/>
				<path class="st2" d="M25.6,56.1C25.6,56.1,25.6,56.1,25.6,56.1c0.2,0,0.4-0.1,0.6-0.1c2.6-0.2,5.2,1,6.7,3.3c0,0,0,0,0,0.1"/>
				<path class="st2" d="M32.1,60.8L32.1,60.8c1.2,2.3,1.3,5,0.5,7.3c0,0,0,0,0,0.1"/>
				<path class="st2" d="M25.4,56.1c0,0,0.1,0,0.1,0c0,0,0,0,0,0c2.4,0.4,4.7,1.8,6.1,4c0,0,0,0,0,0"/>
				<path class="st2" d="M38.8,65.9C38.8,65.9,38.8,65.9,38.8,65.9c0,0,0,0.1-0.1,0.1"/>
				<path class="st2" d="M39,57.2c1.2,2.5,1.2,5.2,0.3,7.6c0,0,0,0,0,0c-0.1,0.2-0.1,0.4-0.2,0.5c0,0,0,0,0,0
					c-0.1,0.2-0.1,0.4-0.2,0.5"/>
				<path class="st2" d="M30.5,51.6C30.6,51.6,30.6,51.6,30.5,51.6c0.1,0,0.1,0,0.1,0c0.4,0,0.7,0.1,1.1,0.1c0,0,0,0,0,0
					c0.4,0.1,0.7,0.1,1.1,0.2c2.2,0.6,4.1,2,5.5,3.9c0,0,0,0,0,0"/>
				<path class="st2" d="M37.6,57.9c1.3,2.5,1.7,5.3,1.3,7.9v0c0,0,0,0,0,0"/>
				<path class="st2" d="M30.5,51.6C30.6,51.6,30.6,51.6,30.5,51.6c2.6,1,4.8,2.7,6.3,5.2c0,0,0,0,0,0"/>
				<path class="st2" d="M42.5,65.7c-0.1,0.1-0.1,0.1-0.2,0.2"/>
				<path class="st2" d="M43.8,54.6C43.8,54.7,43.8,54.7,43.8,54.6L43.8,54.6c1.5,3.2,1.3,6.7-0.3,9.5c-0.1,0.2-0.3,0.5-0.5,0.7
					c0,0,0,0,0,0c0,0.1-0.1,0.1-0.1,0.2c-0.1,0.2-0.3,0.4-0.4,0.5"/>
				<path class="st2" d="M33,48.7c0.1,0,0.3,0,0.4-0.1c3.6-0.3,7.2,1.2,9.4,4.3v0h0c0,0,0,0,0,0"/>
				<path class="st2" d="M42.2,55.5C42.2,55.5,42.2,55.5,42.2,55.5C42.2,55.5,42.2,55.5,42.2,55.5L42.2,55.5
					c0.2,0.5,0.4,0.9,0.6,1.4c0.1,0.2,0.1,0.4,0.2,0.6c0.6,2.1,0.6,4.4,0.1,6.5c0,0.1,0,0.2-0.1,0.3c0,0.1-0.1,0.2-0.1,0.3
					c0,0.1-0.1,0.3-0.1,0.4c-0.1,0.2-0.2,0.5-0.3,0.7c0,0,0,0,0,0"/>
				<path class="st2" d="M33.4,48.8c3.2,0.6,6.1,2.4,8,5.2c0,0,0,0,0,0.1"/>
				<path class="st2" d="M48.8,53.6C48.9,53.6,48.9,53.6,48.8,53.6L48.8,53.6c0.4,1.3,0.6,2.5,0.6,3.7v0v0c0,1.4-0.3,2.7-0.7,4
					c-0.2,0.4-0.3,0.8-0.5,1.3c0,0,0,0,0,0c-0.2,0.4-0.4,0.8-0.7,1.2c-0.3,0.5-0.7,1-1.1,1.4c-0.1,0.1-0.1,0.1-0.2,0.2
					c-0.3,0.3-0.7,0.6-1,0.9c-0.2,0.2-0.4,0.3-0.6,0.4c0,0,0,0,0,0s0,0,0,0"/>
				<path class="st2" d="M46.2,49c-0.2-0.2-0.4-0.5-0.7-0.7c-0.5-0.4-0.9-0.8-1.5-1.2c-0.3-0.2-0.5-0.3-0.8-0.5
					c-3.2-1.8-7.1-2.1-10.7-0.6c0,0,0,0,0,0"/>
				<path class="st2" d="M52.5,52.8c-0.4,0.4-1,0.7-1.6,0.8"/>
				<path class="st2" d="M52.6,52.7C52.6,52.7,52.6,52.7,52.6,52.7L52.6,52.7"/>
				<path class="st2" d="M53.6,49c0,0,0,0.1,0,0.1v0c0.1,0.5,0.1,1.1,0,1.7c0,0,0,0,0,0c0,0,0,0.1,0,0.1"/>
				<path class="st2" d="M81,60.7C81,60.7,81,60.7,81,60.7L81,60.7c1.4,1.6,2,3.9,1.4,5.9c-0.1,0.4-0.3,0.8-0.5,1.2
					c-0.1,0.1-0.1,0.3-0.2,0.4v0c-0.2,0.3-0.3,0.5-0.5,0.7c-0.2,0.2-0.4,0.4-0.6,0.6c-1.4,1.4-3.3,2-5.2,1.8c0,0-0.1,0-0.1,0
					c-0.2,0-0.4-0.1-0.6-0.1c0,0,0,0,0,0"/>
				<path class="st2" d="M74.8,71.2C74.8,71.3,74.8,71.3,74.8,71.2L74.8,71.2c-0.1,0.2-0.1,0.3-0.2,0.4c-0.3,0.5-0.7,1-1.1,1.4
					c-1.8,1.8-4.6,2.4-7,1.4c0,0,0,0,0,0c-0.3-0.1-0.5-0.2-0.8-0.4c-0.6-0.3-1.1-0.8-1.5-1.2l0,0"/>
				<path class="st2" d="M76.9,50.8c0.7,0.1,1.4,0.4,2,0.7c2.5,1.4,3.6,4.2,3.1,6.8c-0.1,0.7-0.4,1.3-0.7,2c0,0,0,0,0,0
					c-0.1,0.1-0.1,0.2-0.2,0.3"/>
				<path class="st2" d="M64.3,72.7c0,0-0.1,0-0.1,0c-1.8,0.8-3.9,0.7-5.8-0.3c-0.5-0.3-1-0.6-1.3-1c-1.2-1.2-1.8-2.8-1.9-4.4"/>
				<path class="st2" d="M67.3,46.1c1.9-1.1,4.4-1.2,6.4,0c1.8,1,2.9,2.8,3.2,4.7v0c0,0,0,0,0,0s0,0,0,0"/>
				<polyline class="st2" points="56.2,54.6 52.6,52.8 52.5,52.8 				"/>
				<polyline class="st2" points="61,57.1 60.9,57.1 57.8,55.5 57.7,55.5 				"/>
				<polyline class="st2" points="66.6,60.1 66.6,60.1 62.4,57.9 62.4,57.9 62.4,57.9 				"/>
				<polyline class="st2" points="75.8,64.9 75.8,64.8 67.9,60.7 				"/>
				<polyline class="st2" points="57.1,52.9 53.7,50.7 53.7,50.7 53.6,50.7 				"/>
				<polyline class="st2" points="57.2,53 57.1,52.9 57.1,52.9 				"/>
				<polyline class="st2" points="61.7,55.9 61.7,55.8 58.6,53.9 				"/>
				<polyline class="st2" points="67.1,59.3 67,59.3 63.1,56.7 				"/>
				<line class="st2" x1="75.8" y1="64.8" x2="68.3" y2="60.1"/>
				<path class="st2" d="M74.4,56C74.4,56,74.4,56,74.4,56"/>
				<path class="st2" d="M67.1,59.3c0.6-0.9,1.4-1.7,2.3-2.3c0.3-0.2,0.5-0.3,0.8-0.4s0.6-0.2,0.8-0.3c1.1-0.3,2.2-0.4,3.3-0.3"/>
				<path class="st2" d="M67.4,68c-1.7-2.2-2.1-5.3-0.8-7.9c0,0,0,0,0-0.1"/>
				<path class="st2" d="M67.4,68C67.4,68,67.4,68,67.4,68"/>
				<path class="st2" d="M68.3,60c0.2-0.3,0.4-0.5,0.6-0.8c0.2-0.2,0.4-0.5,0.6-0.7c0.2-0.2,0.4-0.4,0.7-0.6c0.5-0.4,1-0.7,1.6-1
					c0.5-0.3,1.1-0.5,1.7-0.7c0.3-0.1,0.6-0.1,0.9-0.2c0,0,0,0,0,0h0c0,0,0,0,0.1,0"/>
				<path class="st2" d="M67.5,68.2c0-0.1,0-0.1-0.1-0.2l0,0c0,0,0,0,0,0c-0.8-2.3-0.7-4.9,0.5-7.2c0,0,0,0,0,0"/>
				<path class="st2" d="M69.3,51.7C69.4,51.7,69.4,51.7,69.3,51.7"/>
				<path class="st2" d="M61.7,55.9C61.7,55.9,61.7,55.8,61.7,55.9c0.3-0.5,0.7-0.9,1.1-1.3c1.3-1.4,3-2.3,4.9-2.7
					c0.6-0.1,1.1-0.2,1.7-0.2"/>
				<path class="st2" d="M61.1,66L61.1,66C61.1,65.9,61.1,65.9,61.1,66c-1.4-2.7-1.6-6-0.2-8.8c0,0,0,0,0,0"/>
				<path class="st2" d="M63.1,56.7c1.4-2.1,3.2-3.7,5.3-4.7c0.3-0.1,0.6-0.3,0.9-0.4c0,0,0,0,0,0v0h0c0,0,0,0,0,0"/>
				<path class="st2" d="M61.1,66L61.1,66C61.1,65.9,61.1,65.9,61.1,66c-0.3-2-0.2-3.9,0.4-5.9c0.2-0.8,0.5-1.5,0.9-2.2c0,0,0,0,0,0
					"/>
				<path class="st2" d="M57.1,53C57.1,53,57.1,53,57.1,53C57.1,52.9,57.1,52.9,57.1,53L57.1,53L57.1,53c0.2-0.2,0.3-0.4,0.4-0.6
					c0,0,0,0,0,0c0.1-0.2,0.3-0.3,0.4-0.5c0.1-0.2,0.3-0.3,0.4-0.5c2.3-2.3,5.7-3.4,8.9-2.9c0.1,0,0.2,0,0.3,0"/>
				<path class="st2" d="M57.4,65.3c-0.1-0.1-0.2-0.2-0.2-0.3c-2.1-3-2.5-6.9-1-10.3v0c0,0,0,0,0,0"/>
				<path class="st2" d="M58.6,53.9C58.6,53.9,58.6,53.9,58.6,53.9c2.1-3.1,5.2-4.9,8.6-5.3c0,0,0,0,0.1,0"/>
				<path class="st2" d="M57.2,64.9c-1.1-3-1-6.4,0.5-9.5c0,0,0,0,0-0.1"/>
				<path class="st2" d="M53.6,49.1C53.6,49.1,53.6,49.1,53.6,49.1C53.7,49.1,53.7,49.1,53.6,49.1c0.3-0.3,0.6-0.6,0.8-0.8
					c0.5-0.5,1.1-0.9,1.7-1.3c0,0,0,0,0,0c0.3-0.2,0.6-0.3,0.9-0.5h0c0,0,0,0,0,0c3.1-1.6,6.8-1.8,10.2-0.3h0c0,0,0,0,0,0"/>
				<path class="st2" d="M51,53.7c-0.2,0.5-0.3,1.1-0.4,1.6c0,0.1,0,0.2,0,0.3c-0.1,0.6-0.1,1.1-0.1,1.7v0v0c0,1.4,0.2,2.8,0.7,4
					c0.1,0.2,0.2,0.4,0.2,0.6c0.6,1.5,1.6,2.9,2.8,4c0.4,0.3,0.7,0.6,1.1,0.9v0c0,0,0,0,0,0"/>
			</g>
		</g>
	</g>
</g>
</svg>
