<?xml version="1.0" encoding="utf-8"?>
<!-- Generator: Adobe Illustrator 23.0.3, SVG Export Plug-In . SVG Version: 6.00 Build 0)  -->
<svg version="1.1" id="Layer_1" xmlns="http://www.w3.org/2000/svg" xmlns:xlink="http://www.w3.org/1999/xlink" x="0px" y="0px"
	 viewBox="0 0 100 100" style="enable-background:new 0 0 100 100;" xml:space="preserve">
<style type="text/css">
	.st0{fill:#FFFFFF;}
</style>
<g id="XMLID_1_">
	<g>
		<path d="M43.06,79.2c0.05-0.11,0.12-0.2,0.19-0.3c1.09-1.5,3.2-1.84,4.7-0.74c1.5,1.09,1.84,3.19,0.74,4.7
			c-0.73,1.01-1.92,1.49-3.08,1.36l-0.01,0.04c-5.54-0.71-10.99-2.79-15.83-6.3c-4.88-3.55-8.56-8.13-10.95-13.24l0.02-0.02
			c-0.39-1.02-0.27-2.21,0.42-3.16c1.09-1.5,3.2-1.83,4.7-0.74c1.5,1.09,1.84,3.19,0.74,4.7c-0.06,0.09-0.14,0.18-0.21,0.26l0,0
			c2,3.25,4.65,6.17,7.93,8.55C35.72,76.68,39.34,78.3,43.06,79.2z"/>
		<path d="M54.1,84.21c-1.04,0-2.07-0.48-2.73-1.39c-1.09-1.5-0.76-3.61,0.74-4.7c1.5-1.09,3.61-0.76,4.7,0.74
			c0.07,0.09,0.13,0.18,0.18,0.28v0c3.71-0.89,7.3-2.51,10.58-4.89c3.29-2.39,5.96-5.33,7.95-8.59c-0.08-0.09-0.16-0.18-0.23-0.28
			c-1.09-1.5-0.76-3.61,0.74-4.7c1.5-1.09,3.6-0.76,4.7,0.74c0.73,1.01,0.82,2.29,0.35,3.35l0.03,0.02
			c-2.39,5.05-6.05,9.59-10.89,13.11c-4.88,3.55-10.38,5.62-15.97,6.32L54.1,84.21z"/>
		<path d="M72.83,30.57c-0.11,0.05-0.22,0.09-0.33,0.13c-1.77,0.57-3.66-0.39-4.24-2.16c-0.57-1.77,0.39-3.66,2.16-4.24
			c1.19-0.39,2.43-0.08,3.3,0.7l0.02-0.02c4.07,3.83,7.26,8.71,9.1,14.4c1.86,5.74,2.14,11.61,1.08,17.14h-0.03
			c-0.29,1.05-1.08,1.95-2.2,2.31c-1.77,0.58-3.66-0.39-4.24-2.16c-0.58-1.77,0.39-3.66,2.16-4.24c0.11-0.03,0.21-0.06,0.32-0.09h0
			c0.3-3.8-0.14-7.72-1.39-11.57C77.29,36.92,75.32,33.48,72.83,30.57z"/>
		<path d="M38.52,22.31c0.02,0.12,0.02,0.24,0.02,0.36c0,1.86-1.51,3.36-3.36,3.36s-3.36-1.51-3.36-3.36c0-1.25,0.68-2.34,1.69-2.92
			l-0.02-0.03c4.9-2.68,10.53-4.2,16.51-4.2c6.03,0,11.71,1.55,16.64,4.27l-0.01,0.02c0.91,0.6,1.51,1.64,1.51,2.81
			c0,1.86-1.51,3.36-3.36,3.36c-1.86,0-3.36-1.51-3.36-3.36c0-0.11,0.01-0.22,0.02-0.33v0c-3.52-1.46-7.38-2.26-11.43-2.26
			C45.93,20.04,42.05,20.84,38.52,22.31z"/>
		<path d="M27.16,30.63c-2.48,2.9-4.43,6.33-5.68,10.18c-1.25,3.87-1.68,7.81-1.38,11.62c0.12,0.02,0.23,0.05,0.35,0.09
			c1.77,0.57,2.73,2.47,2.16,4.24c-0.58,1.77-2.47,2.73-4.24,2.16c-1.19-0.39-2.01-1.37-2.25-2.51l-0.03,0.01
			c-1.03-5.49-0.74-11.31,1.11-17c1.86-5.74,5.09-10.65,9.2-14.5l0.02,0.02c0.85-0.68,2.02-0.93,3.14-0.57
			c1.77,0.58,2.73,2.47,2.16,4.24c-0.57,1.77-2.47,2.73-4.24,2.16C27.37,30.71,27.26,30.68,27.16,30.63L27.16,30.63z"/>
		<path d="M37.09,47.09c2.62-1.14,5.55-0.92,7.92,0.42c0.8,0.45,1.54,1.04,2.18,1.74l0.06,0.04c-0.11,0.42-0.13,0.87-0.03,1.31
			l-2.55,1.62c-1.64-2.28-4.33-3.44-7.01-3.2l0.01,0.07c2.34,0.42,4.49,1.75,5.91,3.84l-0.03,0.02l-2.25,1.43
			c-1.32-1.96-3.47-3.09-5.71-3.18c1.87,0.73,3.53,2.03,4.68,3.83l-2.97,1.9c-1.2-1.83-3.34-2.72-5.41-2.42
			c1.8,0.31,3.46,1.36,4.5,3l-0.01,0.01l-5.55,3.54l0,0l5.81-3.02l0.03-0.02c0.9,1.73,0.98,3.68,0.35,5.39
			c1.3-1.64,1.59-3.93,0.61-5.89l3.09-1.61l0.03-0.01c0.95,1.88,1.23,3.94,0.93,5.89c1.03-1.95,1.14-4.35,0.14-6.46l2.37-1.23
			l0.03-0.02c1.18,2.43,1.18,5.17,0.18,7.52l0.01,0c1.8-2.25,2.24-5.4,0.97-8.12l2.67-1.39c0.31,0.29,0.69,0.49,1.09,0.61
			c0.28,0.89,0.41,1.81,0.4,2.72c-0.03,2.72-1.31,5.36-3.6,7.05l0.04,0.05c-0.01,1.65-0.86,3.25-2.39,4.13
			c-1.33,0.76-2.86,0.83-4.18,0.29c-0.34,0.39-0.74,0.73-1.22,1c-2.29,1.32-5.21,0.54-6.53-1.75c-0.05-0.08-0.1-0.17-0.14-0.26
			c-1.96,0.39-4.04-0.47-5.09-2.3c-1.07-1.86-0.76-4.13,0.62-5.63c-0.06-0.08-0.11-0.17-0.17-0.26c-1.32-2.29-0.54-5.21,1.75-6.54
			c0.43-0.25,0.89-0.42,1.36-0.53c0.17-1.45,1-2.81,2.36-3.6c1.5-0.87,3.28-0.83,4.7-0.05L37.09,47.09z"/>
		<path d="M45.42,26.09c0.64-1.89,2.42-3.26,4.53-3.26c2.14,0,3.95,1.41,4.57,3.35c0.1-0.01,0.2-0.01,0.31-0.01
			c2.64,0,4.78,2.14,4.78,4.78c0,0.5-0.08,0.98-0.22,1.44c1.18,0.87,1.94,2.27,1.94,3.84c0,1.74-0.92,3.26-2.31,4.09l-0.05-0.01
			c-0.31,2.73-1.86,5.08-4.06,6.49c-0.86,0.55-1.83,0.96-2.87,1.18l-0.06,0.03c-0.31-0.31-0.69-0.55-1.12-0.69l-0.13-3.02
			c2.79-0.27,5.15-2.03,6.28-4.47l-0.06-0.03c-1.53,1.81-3.77,3.02-6.28,3.2l0-0.04l-0.12-2.67c2.36-0.16,4.41-1.45,5.6-3.34
			c-1.56,1.25-3.52,2.04-5.65,2.14l-0.16-3.52c2.18-0.13,4.02-1.53,4.8-3.47c-1.17,1.4-2.9,2.31-4.85,2.39v-0.01L50,27.93h0
			l-0.29,6.55l-0.37,0.01c-1.8-0.17-3.39-1.06-4.48-2.37c0.77,1.94,2.62,3.34,4.8,3.48l-0.15,3.49l0,0.03
			c-2.1-0.12-4.03-0.89-5.57-2.14c1.18,1.87,3.19,3.16,5.52,3.34L49.34,43l0,0.03c-2.7-0.19-5.07-1.57-6.6-3.6l-0.01,0
			c1.05,2.69,3.56,4.64,6.55,4.9l-0.13,3.01c-0.41,0.13-0.77,0.35-1.08,0.64c-0.89-0.2-1.74-0.54-2.5-0.99
			c-2.36-1.38-4.03-3.82-4.36-6.67l-0.07,0.01c-1.42-0.83-2.38-2.37-2.38-4.14c0-1.53,0.72-2.89,1.84-3.77
			c-0.17-0.49-0.26-1.01-0.26-1.55c0-2.64,2.14-4.78,4.78-4.78C45.22,26.08,45.32,26.09,45.42,26.09z"/>
		<path d="M53.9,62.57c-2.31-1.71-3.59-4.39-3.59-7.14c0-0.9,0.14-1.81,0.42-2.69l0-0.07c0.42-0.11,0.82-0.33,1.15-0.63h0l2.68,1.39
			c-1.16,2.56-0.82,5.48,0.73,7.68l0.05-0.04c-0.8-2.24-0.73-4.77,0.37-7.04l0.03,0.02l2.36,1.23c-1.04,2.12-0.94,4.55,0.1,6.53
			c-0.31-1.98-0.01-4.07,0.98-5.97l3.13,1.62c-0.98,1.95-0.69,4.25,0.61,5.89c-0.62-1.71-0.55-3.66,0.35-5.39l0.01,0L69.12,61l0,0
			l-5.52-3.52l-0.03-0.02c1.05-1.64,2.7-2.68,4.49-3c-2.07-0.3-4.2,0.59-5.41,2.42l0,0L59.71,55l-0.02-0.02
			c1.15-1.76,2.79-3.04,4.64-3.75c-2.21,0.09-4.33,1.19-5.66,3.11l-2.26-1.44l-0.02-0.02c1.52-2.24,3.89-3.61,6.42-3.91v-0.01
			c-2.85-0.43-5.8,0.76-7.52,3.22l-2.54-1.62c0.09-0.42,0.08-0.84-0.02-1.25c0.73-0.79,1.58-1.42,2.51-1.89
			c2.3-1.17,5.07-1.31,7.55-0.23l0.03-0.06c1.43-0.82,3.24-0.88,4.77,0.01c1.33,0.77,2.15,2.07,2.35,3.48c0.51,0.1,1,0.28,1.48,0.55
			c2.29,1.32,3.07,4.25,1.75,6.53c-0.05,0.09-0.1,0.17-0.15,0.25c1.32,1.5,1.61,3.73,0.55,5.55c-1.07,1.86-3.2,2.72-5.18,2.28
			c-0.05,0.09-0.09,0.18-0.14,0.27c-1.32,2.29-4.25,3.07-6.53,1.75c-0.43-0.25-0.81-0.56-1.14-0.91c-1.34,0.58-2.93,0.54-4.3-0.24
			c-1.5-0.87-2.36-2.43-2.39-4.05L53.9,62.57z"/>
		<path class="st0" d="M16.08,56.41l0.03-0.01c0.24,1.14,1.07,2.12,2.25,2.51c1.77,0.57,3.66-0.39,4.24-2.16
			c0.57-1.77-0.39-3.66-2.16-4.24c-0.11-0.04-0.23-0.07-0.35-0.09c-0.3-3.82,0.13-7.76,1.38-11.62c1.25-3.85,3.21-7.27,5.68-10.18
			l0,0c0.1,0.05,0.2,0.08,0.31,0.12c1.77,0.58,3.66-0.39,4.24-2.16c0.58-1.77-0.39-3.66-2.16-4.24c-1.12-0.36-2.29-0.11-3.14,0.57
			l-0.02-0.02c-4.11,3.85-7.34,8.76-9.2,14.5C15.34,45.1,15.05,50.92,16.08,56.41z M81.12,64.8l-0.03-0.02
			c0.48-1.06,0.39-2.34-0.35-3.35c-1.09-1.5-3.2-1.83-4.7-0.74c-1.5,1.09-1.84,3.19-0.74,4.7c0.07,0.1,0.15,0.19,0.23,0.28
			c-2,3.27-4.66,6.2-7.95,8.59c-3.28,2.38-6.87,4-10.58,4.89v0c-0.06-0.09-0.12-0.19-0.18-0.28c-1.09-1.5-3.19-1.84-4.7-0.74
			c-1.5,1.09-1.83,3.19-0.74,4.7c0.66,0.91,1.68,1.39,2.73,1.39l0.16,0.02c5.59-0.7,11.09-2.78,15.97-6.32
			C75.07,74.39,78.73,69.85,81.12,64.8z M73.74,24.99l-0.02,0.02c-0.86-0.78-2.11-1.09-3.3-0.7c-1.77,0.57-2.73,2.47-2.16,4.24
			c0.58,1.77,2.47,2.73,4.24,2.16c0.11-0.04,0.23-0.08,0.33-0.13c2.49,2.91,4.46,6.35,5.72,10.21c1.25,3.85,1.68,7.77,1.39,11.57h0
			c-0.11,0.02-0.22,0.05-0.32,0.09c-1.77,0.58-2.73,2.47-2.16,4.24c0.57,1.77,2.47,2.73,4.24,2.16c1.12-0.36,1.91-1.25,2.2-2.31
			h0.03c1.06-5.53,0.79-11.4-1.08-17.14C81,33.7,77.81,28.82,73.74,24.99z M45.61,84.24l0.01-0.04c1.16,0.13,2.35-0.36,3.08-1.36
			c1.09-1.5,0.76-3.61-0.74-4.7c-1.5-1.09-3.6-0.76-4.7,0.74c-0.07,0.1-0.14,0.2-0.19,0.3c-3.73-0.89-7.34-2.52-10.63-4.91
			c-3.28-2.38-5.93-5.3-7.93-8.55l0,0c0.07-0.08,0.14-0.17,0.21-0.26c1.09-1.5,0.76-3.61-0.74-4.7c-1.5-1.09-3.6-0.76-4.7,0.74
			c-0.69,0.95-0.81,2.14-0.42,3.16l-0.02,0.02c2.39,5.1,6.07,9.69,10.95,13.24C34.62,81.45,40.07,83.53,45.61,84.24z M33.49,19.73
			l0.02,0.03c-1.01,0.58-1.69,1.67-1.69,2.92c0,1.86,1.51,3.36,3.36,3.36s3.36-1.51,3.36-3.36c0-0.12-0.01-0.24-0.02-0.36
			c3.54-1.47,7.42-2.28,11.48-2.28c4.05,0,7.91,0.8,11.43,2.26v0c-0.01,0.11-0.02,0.22-0.02,0.33c0,1.86,1.51,3.36,3.36,3.36
			c1.86,0,3.36-1.51,3.36-3.36c0-1.17-0.6-2.21-1.51-2.81l0.01-0.02c-4.93-2.72-10.6-4.27-16.64-4.27
			C44.02,15.52,38.39,17.05,33.49,19.73z M50,12.9c20.49,0,37.09,16.61,37.09,37.09c0,20.49-16.61,37.09-37.09,37.09
			c-20.49,0-37.09-16.61-37.09-37.09C12.91,29.51,29.51,12.9,50,12.9z M73.56,63.51c1.05-1.83,0.77-4.06-0.55-5.55
			c0.05-0.08,0.11-0.17,0.15-0.25c1.32-2.29,0.54-5.21-1.75-6.53c-0.47-0.27-0.97-0.45-1.48-0.55c-0.2-1.4-1.02-2.71-2.35-3.48
			c-1.53-0.88-3.34-0.83-4.77-0.01l-0.03,0.06c-2.48-1.08-5.25-0.94-7.55,0.23l-0.33-0.61c2.21-1.41,3.75-3.76,4.06-6.49l0.05,0.01
			c1.38-0.84,2.31-2.36,2.31-4.09c0-1.58-0.76-2.97-1.94-3.84c0.14-0.45,0.22-0.94,0.22-1.44c0-2.64-2.14-4.78-4.78-4.78
			c-0.11,0-0.21,0-0.31,0.01c-0.61-1.94-2.42-3.35-4.57-3.35c-2.11,0-3.89,1.36-4.53,3.26c-0.1-0.01-0.2-0.01-0.3-0.01
			c-2.64,0-4.78,2.14-4.78,4.78c0,0.54,0.09,1.07,0.26,1.55c-1.12,0.88-1.84,2.24-1.84,3.77c0,1.77,0.96,3.31,2.38,4.14l0.07-0.01
			c0.33,2.85,1.99,5.29,4.36,6.67l-0.55,0.53c-2.37-1.34-5.3-1.57-7.92-0.42l-0.02-0.05c-1.42-0.78-3.2-0.82-4.7,0.05
			c-1.36,0.79-2.19,2.14-2.36,3.6c-0.46,0.1-0.92,0.28-1.36,0.53c-2.29,1.32-3.07,4.25-1.75,6.54c0.05,0.09,0.11,0.17,0.17,0.26
			c-1.38,1.5-1.69,3.77-0.62,5.63c1.05,1.83,3.13,2.69,5.09,2.3c0.04,0.09,0.09,0.17,0.14,0.26c1.32,2.29,4.25,3.07,6.53,1.75
			c0.47-0.27,0.88-0.61,1.22-1c1.32,0.53,2.86,0.47,4.18-0.29c1.53-0.89,2.39-2.49,2.39-4.13l-0.04-0.05
			c2.29-1.69,3.57-4.33,3.6-7.05l0.75,0.01c0,2.75,1.28,5.43,3.59,7.14l-0.03,0.04c0.03,1.62,0.89,3.18,2.39,4.05
			c1.36,0.79,2.95,0.83,4.3,0.24c0.32,0.35,0.7,0.66,1.14,0.91c2.29,1.32,5.21,0.54,6.53-1.75c0.05-0.09,0.1-0.18,0.14-0.27
			C70.36,66.23,72.49,65.36,73.56,63.51z"/>
		<path class="st0" d="M43.58,52.93c-1.41-2.09-3.57-3.42-5.91-3.84l-0.01-0.07c2.68-0.24,5.37,0.92,7.01,3.2l2.55-1.62
			c-0.1-0.44-0.08-0.89,0.03-1.31l-0.06-0.04c-0.64-0.7-1.38-1.29-2.18-1.74l0.55-0.53c0.77,0.45,1.61,0.79,2.5,0.99
			c0.3-0.29,0.67-0.51,1.08-0.64l0.13-3.01c-2.99-0.26-5.5-2.21-6.55-4.9l0.01,0c1.53,2.04,3.9,3.41,6.6,3.6l0-0.03l0.12-2.68
			c-2.32-0.19-4.33-1.48-5.52-3.34c1.54,1.24,3.46,2.02,5.57,2.14l0-0.03l0.15-3.49c-2.18-0.13-4.03-1.53-4.8-3.48
			c1.1,1.31,2.69,2.2,4.48,2.37l0.37-0.01L50,27.93h0l0.29,6.58v0.01c1.95-0.08,3.67-1,4.85-2.39c-0.77,1.94-2.61,3.34-4.8,3.47
			l0.16,3.52c2.14-0.1,4.09-0.88,5.65-2.14c-1.19,1.89-3.24,3.18-5.6,3.34l0.12,2.67l0,0.04c2.51-0.18,4.74-1.39,6.28-3.2L57,39.85
			c-1.13,2.44-3.49,4.19-6.28,4.47l0.13,3.02c0.43,0.14,0.81,0.37,1.12,0.69l0.06-0.03c1.04-0.23,2-0.63,2.87-1.18l0.33,0.61
			c-0.93,0.47-1.78,1.1-2.51,1.89c0.1,0.4,0.11,0.83,0.02,1.25l2.54,1.62c1.72-2.46,4.67-3.65,7.52-3.22v0.01
			c-2.53,0.31-4.9,1.68-6.42,3.91l0.02,0.02l2.26,1.44c1.33-1.92,3.45-3.02,5.66-3.11c-1.85,0.71-3.49,1.99-4.64,3.75L59.71,55
			l2.94,1.88l0,0c1.2-1.83,3.34-2.72,5.41-2.42c-1.8,0.32-3.45,1.36-4.49,3l0.03,0.02L69.12,61l0,0l-5.83-3.04l-0.01,0
			c-0.9,1.73-0.98,3.67-0.35,5.39c-1.3-1.64-1.58-3.93-0.61-5.89l-3.13-1.62c-0.98,1.9-1.29,3.99-0.98,5.97
			c-1.04-1.98-1.14-4.4-0.1-6.53l-2.36-1.23l-0.03-0.02c-1.1,2.27-1.17,4.8-0.37,7.04L55.3,61.1c-1.55-2.2-1.89-5.12-0.73-7.68
			l-2.68-1.39h0c-0.33,0.3-0.73,0.52-1.15,0.63l0,0.07c-0.28,0.88-0.42,1.79-0.42,2.69l-0.75-0.01c0.01-0.91-0.12-1.83-0.4-2.72
			c-0.4-0.11-0.77-0.32-1.09-0.61l-2.67,1.39c1.27,2.72,0.83,5.87-0.97,8.12l-0.01,0c1-2.35,1-5.09-0.18-7.52l-0.03,0.02l-2.37,1.23
			c1,2.11,0.89,4.5-0.14,6.46c0.3-1.95,0.02-4.01-0.93-5.89l-0.03,0.01l-3.09,1.61c0.98,1.96,0.69,4.25-0.61,5.89
			c0.63-1.71,0.55-3.67-0.35-5.39l-0.03,0.02l-5.81,3.02l0,0l5.55-3.54l0.01-0.01c-1.05-1.64-2.7-2.69-4.5-3
			c2.07-0.3,4.2,0.59,5.41,2.42l2.97-1.9c-1.15-1.8-2.81-3.11-4.68-3.83c2.24,0.09,4.38,1.22,5.71,3.18l2.25-1.43L43.58,52.93z"/>
	</g>
	<g>
	</g>
</g>
</svg>
