<?xml version="1.0" encoding="utf-8"?>
<!-- Generator: Adobe Illustrator 23.0.4, SVG Export Plug-In . SVG Version: 6.00 Build 0)  -->
<svg version="1.1" xmlns="http://www.w3.org/2000/svg" xmlns:xlink="http://www.w3.org/1999/xlink" x="0px" y="0px"
	 viewBox="0 0 428 316" style="enable-background:new 0 0 428 316;" xml:space="preserve">
<style type="text/css">
	.st0{display:none;}
	.st1{display:inline;fill:#FF66B3;}
	.st2{display:inline;}
	.st3{fill:#FFFFFF;}
	.st4{display:inline;fill:#464678;}
	.st5{display:inline;fill:#FFFFFF;}
	.st6{fill:#E74C3C;}
	.st7{font-family:'Futura-CondensedMedium';}
	.st8{font-size:62.9569px;}
</style>
<g id="Layer_1" class="st0">
	<g>
		<circle class="st1" cx="214" cy="158" r="115.2"/>
		<g class="st2">
			<path class="st3" d="M285.3,133.7c-8.1,11.4-12.2,11.7-26.8,0.3c-10.3,11.7-20.7,23.4-31,35.1c7.9,14.5,7.2,31.2-7.5,44.4
				c-9.2-10-18.4-20-28.6-31.1c-18.2,18.6-35.1,35.7-51.8,53c-3.6,3.8-7.5,6.2-14.9,4.1c2.2-4.3,3.3-8.9,6.1-11.9
				c15.4-15.9,31.2-31.3,46.9-47c1.5-1.5,3-3.1,5.4-5.7c-10.2-9.5-20.2-18.9-30-28.1c11.2-13.6,27.6-16.2,44.1-7.4
				c11.7-10.3,23.4-20.6,35.2-31c-11.1-16.7-11-17.5,0.6-27.4C250.4,98.5,267.8,116,285.3,133.7z"/>
		</g>
	</g>
	
		<image style="display:inline;overflow:visible;" width="180" height="180" xlink:href="../../../../../../Google Drive/Salt Lick Studio/Logos/fmLogo180.png"  transform="matrix(1 0 0 1 124 68)">
	</image>
</g>
<g id="Layer_2" class="st0">
	<rect class="st4" width="428" height="316"/>
	<circle class="st5" cx="214" cy="158" r="127.4"/>
	<rect x="243" y="189.8" class="st5" width="76.4" height="76.4"/>
	<rect x="243" y="49.8" class="st3" width="76.4" height="76.4"/>
	<rect x="108" y="49.8" class="st3" width="76.4" height="76.4"/>
	<rect x="108" y="189.8" class="st3" width="76.4" height="76.4"/>
	
		<image style="display:inline;overflow:visible;" width="180" height="180" xlink:href="../../../../../../Google Drive/Salt Lick Studio/Logos/LDLogo180.png"  transform="matrix(1 0 0 1 124 68)">
	</image>
</g>
<g id="Layer_3">
	
		<image style="overflow:visible;" width="180" height="180" xlink:href="../../../../../../Google Drive/Salt Lick Studio/Logos/TMLogo180.png"  transform="matrix(1 0 0 1 124.1543 26.5)">
	</image>
	<text transform="matrix(0.8174 0 0 1 106.8696 244.3496)" class="st6 st7 st8">Talent Market</text>
</g>
</svg>
