<?xml version="1.0" encoding="utf-8"?>
<!-- Generator: Adobe Illustrator 23.0.4, SVG Export Plug-In . SVG Version: 6.00 Build 0)  -->
<svg version="1.1" xmlns="http://www.w3.org/2000/svg" xmlns:xlink="http://www.w3.org/1999/xlink" x="0px" y="0px"
	 viewBox="0 0 428 316" style="enable-background:new 0 0 428 316;" xml:space="preserve">
<style type="text/css">
	.st0{display:none;}
	.st1{display:inline;fill:#00A651;}
	.st2{fill:#1C3665;}
	.st3{fill:#FFFFFF;}
</style>
<g id="Layer_2" class="st0">
	<rect class="st1" width="428" height="316"/>
</g>
<g id="Layer_1">
	<g>
		<g id="XMLID_2_">
			<g>
				<path class="st2" d="M289.5,89.3c6.2,26.6-9.7,66.2-36,81.5c-11.8,6.9-22.4,2.2-25.7-12.6c3.1-1.3,5.8-2.3,8.4-3.5
					c23.5-10.6,36.6-36.4,31.3-61.6c-5.3-24.9-28.2-43.4-53.9-43.3c-25.7,0.1-48.5,18.7-53.6,43.7c-5.1,25.4,8,51,31.7,61.3
					c4.8,2.1,10,3.3,14.9,5.1c11.5,4.1,18.4,14.2,17.6,26.4c-0.8,13.6,2.9,24.5,15.4,31.9c9.4,5.6,15.2,14.6,18,25.1
					c2.4,8.9,4.4,17.9,6.2,26.9c1.4,7.1-1.3,12.8-7.7,16.2c-6.4,3.4-12.6,2.5-17.7-2.7c-5.4-5.5-5.9-12-2.2-18.6
					c7.4-13.3,3.1-26.2-12.3-33.1c0.7,11.9-3,23.2,2.9,34.4c3.8,7.1,1.8,13.8-4.5,18.7c-5.8,4.4-12.2,4.4-17.9,0.1
					c-6-4.5-9-11.5-4.8-17.8c7.7-11.3,3-23.2,4.8-34.9c-13.9,1.4-22.7,19.5-15.5,30.4c5.4,8.2,5,15.8-1.1,21.4
					c-5.3,4.9-13.6,5.3-19.4,0.9c-6.6-5-7.5-12-3.1-21.2c1.2-2.5,1.9-5.5,2-8.3c0.5-17.9,8.4-31.3,23.9-40.3
					c8.7-5,13.3-12.4,12-22.5c-1.3-9.4-7.3-14.6-16.2-17.6c-32.6-11.1-51.5-39.9-49.7-75.3c1.7-33.4,26.2-61.1,58.2-70.1
					C235.7,18.5,280.3,49.6,289.5,89.3z"/>
			</g>
			<g>
			</g>
		</g>
		<path class="st3" d="M183.7,274.8c0,0,0,6.3-6.7,6.3c0,0-6.9,0-6.9-6c0,0,0-7.8,6.5-7.8C183.7,267.4,183.7,274.8,183.7,274.8z"/>
		<path class="st3" d="M219.5,274.8c0,0,0,6.3-6.7,6.3c0,0-6.9,0-6.9-6c0,0,0-7.8,6.5-7.8C219.5,267.4,219.5,274.8,219.5,274.8z"/>
		<path class="st3" d="M255.8,274.8c0,0,0,6.3-6.7,6.3c0,0-6.9,0-6.9-6c0,0,0-7.8,6.5-7.8C255.8,267.4,255.8,274.8,255.8,274.8z"/>
	</g>
</g>
</svg>
